<?xml version="1.0" standalone="no"?>
<!DOCTYPE svg PUBLIC "-//W3C//DTD SVG 20010904//EN"
 "http://www.w3.org/TR/2001/REC-SVG-20010904/DTD/svg10.dtd">
<svg version="1.0" xmlns="http://www.w3.org/2000/svg"
 width="500.000000pt" height="500.000000pt" viewBox="0 0 500.000000 500.000000"
 preserveAspectRatio="xMidYMid meet">

<g transform="translate(0.000000,500.000000) scale(0.100000,-0.100000)"
fill="#000000" stroke="none">
<path d="M1770 4986 c-174 -25 -362 -79 -452 -129 -21 -11 -44 -34 -52 -51
-11 -24 -25 -230 -60 -891 -46 -868 -55 -1027 -61 -1033 -2 -2 -31 -7 -66 -12
-226 -32 -370 -243 -315 -460 38 -146 160 -261 297 -277 27 -3 49 -9 49 -13 0
-4 -9 -167 -20 -361 -86 -1548 -91 -1651 -72 -1688 36 -75 -20 -71 982 -71
1000 0 944 -4 984 70 18 34 18 49 -33 995 -28 528 -52 983 -53 1010 l-3 50
142 5 143 5 32 32 c31 31 33 38 38 120 l5 88 60 0 60 0 6 -80 c7 -93 28 -141
89 -204 61 -63 118 -85 215 -85 95 0 150 21 218 83 56 51 88 125 95 213 5 76
7 78 105 78 71 0 109 19 131 64 20 42 20 69 1 110 -23 48 -51 60 -145 66 l-85
5 -7 75 c-10 91 -43 164 -100 215 -64 58 -120 79 -213 79 -97 0 -154 -23 -215
-86 -61 -62 -82 -110 -89 -203 l-6 -80 -60 0 -60 0 -5 85 c-10 147 -33 164
-246 168 l-152 4 -6 86 c-3 48 -24 429 -46 847 -54 1025 -50 979 -85 1015 -46
48 -232 112 -420 145 -126 22 -406 28 -525 11z m-24 -328 c-3 -40 -13 -215
-21 -388 -9 -173 -18 -333 -21 -356 l-5 -41 -118 -2 c-66 -1 -121 1 -124 6 -7
13 35 777 44 787 8 9 211 65 238 66 11 0 12 -15 7 -72z m607 51 c50 -12 105
-27 121 -34 l31 -13 21 -389 c12 -213 19 -391 17 -395 -2 -3 -57 -7 -122 -7
l-120 0 -5 52 c-3 29 -12 192 -21 362 -8 171 -18 340 -21 378 -3 37 -3 67 1
67 4 0 48 -10 98 -21z m-328 -434 c8 -170 15 -329 15 -352 l0 -43 -46 0 -47 0
6 73 c3 39 14 223 24 407 20 387 24 381 48 -85z m-342 -655 c3 -3 -4 -153 -14
-335 -10 -181 -18 -347 -19 -367 l0 -38 -126 0 -127 0 7 108 c3 59 10 208 16
332 6 124 14 245 16 269 l6 43 118 -3 c65 -2 120 -6 123 -9z m373 -1 c3 -5 43
-673 44 -731 0 -5 -45 -8 -100 -8 -88 0 -100 2 -100 18 -1 74 35 692 42 710 7
20 14 23 58 21 28 -2 53 -6 56 -10z m499 -3 c3 -6 11 -139 20 -296 8 -157 18
-320 21 -362 l6 -78 -125 0 -126 0 -5 53 c-12 110 -37 677 -31 687 9 15 235
11 240 -4z m1175 -886 c19 -19 20 -33 20 -230 0 -197 -1 -211 -20 -230 -28
-28 -64 -25 -89 6 -20 25 -21 40 -21 224 0 184 1 199 21 224 25 31 61 34 89 6z
m-735 -230 l0 -125 -929 -3 c-598 -1 -942 1 -966 8 -96 26 -131 131 -67 205
12 15 38 30 57 35 19 4 456 7 970 7 l935 -2 0 -125z m-1391 -427 c-2 -27 -11
-190 -20 -363 -8 -173 -17 -320 -19 -326 -2 -8 -44 -12 -126 -13 l-122 -2 7
153 c4 84 11 227 16 318 5 91 10 188 11 215 1 28 4 53 6 58 2 4 60 7 128 7
l124 0 -5 -47z m540 -15 c6 -67 36 -615 36 -660 l0 -26 -180 -2 -180 -1 0 38
c1 33 37 704 39 711 1 1 64 2 140 2 l139 0 6 -62z m500 10 c5 -51 36 -629 36
-675 0 -23 -2 -23 -119 -23 -66 0 -122 4 -125 8 -3 5 -12 134 -20 288 -9 153
-18 318 -21 367 l-7 87 126 0 125 0 5 -52z m-1096 -952 c5 -6 -12 -374 -35
-768 l-6 -98 -124 0 -123 0 0 33 c0 50 41 821 44 832 4 11 233 12 244 1z m649
-23 c5 -54 43 -775 43 -809 l0 -34 -240 0 -240 0 0 48 c0 55 41 802 45 817 1
6 74 9 196 8 l194 -2 2 -28z m520 -349 c12 -209 22 -405 22 -436 l1 -58 -125
0 -125 0 -1 43 c0 23 -10 218 -22 434 -22 392 -22 392 -2 395 11 2 67 2 125 2
l105 -1 22 -379z"/>
</g>
</svg>
