<?xml version="1.0" standalone="no"?>
<!DOCTYPE svg PUBLIC "-//W3C//DTD SVG 20010904//EN"
 "http://www.w3.org/TR/2001/REC-SVG-20010904/DTD/svg10.dtd">
<svg version="1.0" xmlns="http://www.w3.org/2000/svg"
 width="2048.000000pt" height="2048.000000pt" viewBox="0 0 2048.000000 2048.000000"
 preserveAspectRatio="xMidYMid meet">

<g transform="translate(0.000000,2048.000000) scale(0.100000,-0.100000)"
fill="#000000" stroke="none">
<path d="M7980 16328 c-14 -6 -42 -17 -63 -26 -78 -32 -143 -121 -197 -267
-12 -33 -26 -69 -30 -80 -4 -11 -18 -47 -30 -80 -12 -33 -26 -70 -31 -82 -5
-13 -13 -33 -18 -45 -5 -13 -23 -61 -41 -108 -18 -47 -36 -94 -40 -105 -5 -11
-40 -103 -80 -205 -40 -102 -76 -195 -81 -207 -5 -13 -13 -34 -19 -48 -5 -14
-14 -35 -19 -47 -5 -13 -17 -43 -26 -68 -9 -25 -23 -58 -30 -75 -7 -16 -23
-57 -35 -90 -12 -33 -26 -69 -30 -80 -5 -11 -20 -51 -35 -90 -15 -38 -33 -83
-40 -100 -7 -16 -23 -57 -35 -90 -12 -33 -31 -79 -41 -102 -11 -24 -19 -47
-19 -53 0 -6 -4 -18 -9 -28 -5 -9 -14 -30 -21 -47 -7 -16 -16 -38 -21 -47 -5
-10 -9 -22 -9 -28 0 -6 -8 -29 -19 -53 -17 -37 -40 -97 -96 -247 -9 -25 -23
-61 -32 -80 -21 -48 -25 -59 -73 -185 -23 -60 -46 -120 -51 -132 -5 -13 -13
-33 -18 -45 -5 -13 -24 -61 -41 -108 -18 -47 -38 -98 -45 -115 -7 -16 -21 -50
-30 -75 -22 -59 -29 -76 -54 -132 -12 -26 -21 -52 -21 -58 0 -6 -4 -18 -9 -28
-5 -9 -13 -28 -19 -42 -5 -14 -19 -46 -31 -72 -12 -26 -21 -52 -21 -58 0 -6
-4 -18 -9 -28 -5 -9 -21 -48 -36 -87 -15 -38 -33 -83 -40 -100 -7 -16 -27 -68
-45 -115 -17 -47 -36 -94 -40 -105 -5 -11 -41 -103 -80 -205 -40 -102 -81
-204 -91 -227 -10 -24 -19 -46 -19 -51 0 -5 -9 -27 -20 -50 -11 -22 -20 -46
-20 -52 0 -5 -4 -18 -9 -28 -5 -9 -31 -71 -56 -137 -26 -66 -54 -136 -62 -155
-20 -47 -24 -55 -83 -210 -29 -74 -61 -154 -71 -177 -10 -24 -19 -47 -19 -53
0 -6 -4 -18 -9 -28 -9 -17 -23 -51 -40 -94 -4 -13 -13 -34 -19 -48 -5 -14 -29
-74 -53 -135 -23 -60 -46 -114 -51 -120 -4 -5 -8 -15 -8 -22 0 -7 -9 -35 -21
-61 -12 -26 -25 -56 -29 -67 -4 -11 -17 -41 -29 -67 -12 -26 -21 -54 -21 -61
0 -7 -4 -17 -9 -22 -4 -6 -29 -64 -55 -130 -26 -66 -55 -136 -63 -155 -8 -19
-18 -44 -23 -55 -17 -46 -32 -77 -101 -220 -188 -387 -391 -669 -629 -875 -41
-36 -77 -68 -80 -71 -27 -31 -221 -143 -320 -184 -107 -45 -141 -56 -230 -75
-30 -6 -69 -16 -86 -21 -17 -5 -38 -9 -48 -9 -33 0 -117 -51 -136 -83 -41 -67
-11 -140 67 -166 45 -14 301 -11 733 10 366 17 973 18 1405 1 557 -22 828 -26
868 -13 82 27 113 120 64 192 -18 27 -36 38 -92 55 -39 12 -101 27 -140 33
-67 11 -91 17 -187 42 -92 24 -200 72 -288 128 -65 41 -183 152 -215 201 -73
115 -98 180 -120 305 -32 180 -10 445 55 645 4 14 13 45 20 70 16 55 88 277
99 305 5 11 23 56 41 100 18 44 41 99 51 122 11 24 19 47 19 53 0 6 5 19 10
30 6 11 15 29 20 40 6 11 10 24 10 30 0 6 8 29 19 53 10 23 38 92 62 152 23
61 55 138 71 173 l28 62 1419 0 1419 0 22 -57 c12 -32 26 -67 30 -78 4 -11 18
-47 30 -80 12 -33 31 -79 41 -102 11 -24 19 -47 19 -53 0 -6 4 -18 9 -28 8
-16 14 -29 40 -94 5 -13 46 -117 91 -233 45 -115 86 -220 91 -232 26 -66 32
-79 40 -95 5 -10 9 -22 9 -28 0 -6 9 -29 19 -53 25 -55 106 -261 141 -359 16
-42 35 -91 43 -110 8 -18 25 -60 37 -93 26 -70 33 -88 53 -135 9 -19 23 -55
32 -80 9 -25 21 -55 26 -67 5 -13 13 -33 18 -45 4 -13 13 -34 19 -48 5 -14 20
-52 33 -85 12 -33 35 -88 51 -123 15 -34 28 -64 28 -66 0 -4 69 -156 96 -211
52 -107 122 -190 187 -224 45 -23 51 -24 174 -16 273 18 1033 8 1575 -21 149
-8 205 3 243 48 19 22 25 41 25 76 0 84 -30 104 -260 172 -317 93 -511 217
-702 450 -88 107 -115 144 -157 215 -44 74 -58 99 -103 190 -63 124 -138 289
-138 302 0 5 -22 64 -49 133 -27 69 -77 197 -111 285 -34 88 -67 171 -72 185
-6 14 -15 35 -19 48 -9 21 -18 45 -38 95 -5 12 -23 60 -41 107 -17 47 -36 93
-41 102 -5 10 -9 22 -9 28 0 6 -8 29 -19 53 -10 23 -29 69 -41 102 -37 100
-55 146 -71 177 -5 10 -9 22 -9 28 0 6 -9 29 -19 53 -10 23 -47 114 -81 202
-34 88 -71 179 -81 202 -10 24 -19 47 -19 53 0 6 -4 18 -9 28 -5 9 -31 71 -56
137 -26 66 -53 134 -60 150 -7 17 -18 46 -25 65 -7 19 -16 44 -20 55 -4 11
-18 47 -30 80 -26 71 -39 104 -51 127 -5 10 -9 23 -9 28 0 6 -9 30 -20 52 -11
23 -20 45 -20 50 0 5 -9 27 -19 51 -10 23 -60 148 -111 277 -50 129 -97 246
-102 260 -14 34 -22 55 -48 125 -12 33 -26 68 -31 77 -5 10 -9 22 -9 28 0 6
-8 29 -19 53 -10 23 -29 69 -41 102 -37 100 -55 146 -71 177 -5 10 -9 22 -9
28 0 6 -9 32 -21 58 -12 26 -25 57 -30 70 -5 12 -13 32 -18 45 -5 12 -19 49
-31 82 -26 72 -32 87 -58 145 -10 25 -25 63 -33 85 -7 22 -17 44 -21 49 -4 6
-8 16 -8 23 0 7 -9 32 -19 56 -10 23 -69 170 -131 327 -61 157 -115 294 -120
305 -4 11 -32 81 -60 155 -29 74 -61 154 -71 177 -10 24 -19 46 -19 51 0 5 -9
27 -20 50 -11 22 -20 46 -20 52 0 5 -4 18 -9 28 -16 30 -48 106 -62 147 -7 22
-17 44 -21 50 -4 5 -8 15 -8 22 0 7 -8 32 -19 56 -10 23 -38 92 -61 152 -23
61 -46 119 -50 130 -4 11 -20 52 -35 90 -15 39 -33 84 -40 100 -7 17 -23 57
-35 90 -81 217 -158 318 -262 349 -62 18 -180 20 -218 4z m-216 -1585 c7 -16
28 -71 45 -123 18 -52 36 -104 41 -115 5 -11 16 -40 24 -65 23 -70 67 -193 76
-215 12 -28 54 -150 96 -275 19 -58 39 -114 44 -125 5 -11 18 -49 30 -85 12
-36 25 -74 30 -85 5 -11 23 -63 40 -115 17 -52 35 -103 40 -112 6 -10 10 -25
10 -33 0 -8 4 -23 10 -33 10 -18 56 -150 116 -332 19 -58 39 -114 44 -125 13
-29 61 -165 70 -200 11 -38 98 -294 110 -320 7 -17 43 -118 82 -230 5 -16 14
-39 18 -50 16 -37 82 -230 87 -253 3 -12 9 -25 14 -28 5 -3 9 -14 9 -25 0 -10
4 -27 10 -37 5 -9 21 -51 34 -92 47 -141 83 -240 89 -247 4 -3 7 -15 7 -25 0
-17 -45 -18 -1266 -18 l-1265 0 6 23 c8 29 27 75 64 159 12 26 21 52 21 58 0
6 4 18 9 28 5 9 21 49 36 87 15 39 33 84 40 100 7 17 27 68 45 115 17 47 36
93 41 102 5 10 9 22 9 28 0 6 9 29 19 53 10 23 51 125 91 227 39 102 76 193
81 202 5 10 9 22 9 28 0 6 8 29 19 53 10 23 33 80 51 127 18 47 37 89 42 94 4
6 8 16 8 23 0 7 9 32 19 56 10 23 31 74 46 112 15 39 33 84 40 100 7 17 25 62
40 100 15 39 33 84 40 100 7 17 32 80 55 140 23 61 51 129 61 152 11 24 19 49
19 56 0 7 4 17 9 22 5 6 19 39 31 75 13 36 32 85 42 110 26 59 21 45 138 345
56 143 105 269 110 280 4 11 18 47 30 80 25 68 62 155 66 155 2 0 10 -12 18
-27z"/>
<path d="M12430 13869 c-226 -22 -392 -47 -520 -79 -19 -5 -57 -14 -85 -21
-55 -12 -109 -28 -140 -39 -11 -4 -65 -22 -120 -39 -55 -18 -109 -36 -120 -40
-11 -5 -47 -19 -80 -31 -81 -31 -415 -194 -494 -241 -34 -22 -65 -39 -68 -39
-2 0 -24 -13 -48 -30 -24 -16 -46 -30 -50 -30 -3 0 -53 -33 -111 -72 -58 -40
-116 -80 -127 -88 -12 -8 -81 -58 -153 -111 -143 -107 -233 -190 -258 -240
-23 -45 -20 -125 9 -264 14 -66 28 -133 31 -150 11 -62 58 -216 74 -247 6 -10
10 -22 10 -28 0 -5 14 -39 30 -75 17 -36 30 -68 30 -71 0 -9 60 -128 73 -145
19 -24 56 -41 77 -34 11 3 27 23 36 43 65 143 137 288 174 347 23 39 48 79 54
90 13 23 91 139 138 205 114 161 314 374 468 499 185 151 418 295 585 361 33
13 65 26 70 30 11 7 189 63 250 79 73 18 129 29 200 40 39 5 103 14 143 20
141 21 431 11 602 -20 135 -25 192 -40 325 -86 55 -19 109 -37 120 -40 11 -4
74 -33 140 -66 132 -66 321 -188 430 -278 78 -64 269 -257 331 -334 41 -51
124 -170 124 -178 0 -3 16 -31 36 -63 42 -71 124 -240 124 -257 0 -7 4 -17 9
-22 23 -27 101 -254 141 -415 6 -22 14 -57 19 -77 13 -52 43 -218 60 -340 27
-183 35 -221 58 -260 69 -122 281 -138 382 -28 67 73 76 123 61 360 -28 451
10 1155 80 1480 5 22 14 67 21 100 7 33 23 103 36 155 14 52 31 120 38 150 27
106 14 178 -37 214 -44 31 -75 22 -223 -64 -156 -91 -250 -121 -388 -121 -59
0 -122 5 -140 10 -135 44 -164 53 -182 61 -11 5 -67 29 -125 54 -58 24 -149
65 -202 90 -188 89 -400 174 -515 207 -18 5 -49 14 -68 19 -85 24 -103 29
-160 43 -194 48 -237 56 -400 77 -238 31 -612 45 -775 29z"/>
<path d="M8690 10670 c-8 -5 -24 -10 -35 -10 -47 0 -111 -79 -143 -175 -81
-246 -107 -486 -106 -970 0 -331 7 -462 34 -680 14 -114 16 -130 51 -312 36
-195 119 -509 160 -608 4 -11 15 -40 23 -65 62 -193 214 -511 346 -725 23 -38
48 -79 54 -90 49 -86 179 -259 316 -420 102 -120 364 -382 475 -474 138 -115
361 -281 379 -281 2 0 31 -17 63 -38 211 -139 609 -321 878 -401 135 -40 322
-88 395 -102 30 -6 73 -14 95 -19 451 -87 944 -102 1415 -41 114 15 210 30
260 41 25 6 68 15 95 20 48 10 82 17 170 39 37 9 56 14 150 41 19 6 50 14 68
19 75 21 254 85 264 94 3 4 12 7 19 7 33 0 409 174 584 271 330 182 725 479
953 717 l68 72 -4 82 c-3 46 -11 180 -18 298 -17 274 -18 903 -1 1125 32 425
61 574 149 755 70 144 148 223 284 287 104 49 243 93 294 93 14 0 49 11 80 25
45 19 59 31 71 61 31 73 -2 131 -90 160 -46 15 -81 16 -356 8 -380 -11 -2166
-11 -2510 0 -253 9 -255 8 -303 -14 -54 -25 -77 -60 -77 -116 0 -70 87 -124
198 -124 28 0 72 -4 99 -10 26 -5 86 -17 133 -25 118 -20 167 -31 225 -50 69
-23 205 -89 262 -127 110 -74 238 -235 273 -343 7 -22 16 -49 20 -60 29 -78
49 -191 80 -461 13 -119 13 -983 0 -1094 -16 -128 -31 -219 -47 -280 -8 -30
-18 -70 -23 -88 -14 -55 -110 -240 -143 -274 -7 -7 -40 -47 -74 -88 -143 -176
-335 -322 -578 -440 -71 -35 -139 -67 -150 -71 -30 -12 -203 -66 -255 -79
-120 -31 -165 -39 -320 -60 -106 -15 -589 -8 -675 10 -33 6 -80 15 -105 20
-117 22 -272 68 -359 106 -20 9 -45 20 -56 24 -77 31 -226 103 -315 153 -69
38 -245 160 -314 217 -39 31 -124 111 -188 176 -245 248 -451 548 -637 929
-54 112 -74 153 -106 230 -7 17 -25 56 -39 88 -14 32 -26 60 -26 62 0 3 -9 27
-21 53 -26 59 -32 74 -58 145 -12 31 -30 83 -42 115 -12 31 -25 66 -29 77 -4
11 -18 47 -30 80 -26 70 -34 91 -48 125 -5 14 -15 41 -22 60 -7 19 -16 44 -21
55 -4 11 -15 40 -23 65 -13 43 -39 112 -56 155 -4 11 -18 47 -30 80 -12 33
-26 69 -30 80 -5 11 -16 40 -24 65 -8 25 -22 65 -31 90 -9 25 -30 81 -47 125
-16 44 -34 89 -38 100 -4 11 -18 47 -30 80 -12 33 -26 69 -30 80 -27 67 -65
168 -80 215 -17 51 -41 118 -60 165 -4 11 -22 58 -40 105 -18 47 -36 94 -40
105 -4 11 -23 58 -41 105 -139 362 -281 588 -405 645 -56 26 -127 33 -154 15z"/>
</g>
</svg>
