<?xml version="1.0" standalone="no"?>
<!DOCTYPE svg PUBLIC "-//W3C//DTD SVG 20010904//EN"
 "http://www.w3.org/TR/2001/REC-SVG-20010904/DTD/svg10.dtd">
<svg version="1.0" xmlns="http://www.w3.org/2000/svg"
 width="1024.000000pt" height="1024.000000pt" viewBox="0 0 1024.000000 1024.000000"
 preserveAspectRatio="xMidYMid meet">

<g transform="translate(0.000000,1024.000000) scale(0.100000,-0.100000)"
fill="#000000" stroke="none">
<path d="M4822 9578 c-29 -18 -91 -59 -138 -92 -96 -65 -175 -100 -246 -111
l-47 -7 5 -57 c15 -173 22 -286 18 -293 -3 -4 -20 -8 -38 -8 -31 0 -34 3 -40
41 -15 92 -86 134 -156 92 -60 -35 -86 -175 -47 -250 52 -99 165 -94 199 9 13
39 18 43 50 46 45 4 45 5 52 -208 4 -91 9 -193 12 -227 l6 -63 -35 0 c-33 0
-35 2 -41 41 -19 119 -165 135 -212 23 -18 -43 -18 -135 0 -178 19 -45 61 -76
104 -76 27 0 43 9 73 39 22 21 39 48 39 60 0 17 6 21 34 21 19 0 37 -3 40 -8
2 -4 6 -120 7 -257 l3 -250 -29 0 c-26 0 -30 5 -37 39 -22 103 -120 147 -180
79 -51 -56 -62 -152 -25 -223 30 -60 74 -86 120 -71 41 14 73 46 82 84 6 24
12 28 39 25 l31 -3 0 -100 c1 -94 3 -105 38 -183 35 -75 76 -226 93 -339 l6
-43 69 0 69 0 0 244 c0 134 3 257 6 274 5 27 1 36 -34 69 -35 33 -42 47 -51
104 -19 115 -23 109 68 109 l80 0 5 -52 c33 -290 56 -530 56 -573 0 -29 3 -80
6 -114 l7 -61 108 0 107 0 6 68 c10 115 25 259 51 487 13 121 25 226 25 233 0
10 19 12 78 10 l77 -3 -3 -65 c-6 -110 -17 -138 -64 -157 l-40 -16 6 -51 c3
-28 6 -153 6 -278 l0 -228 64 0 63 0 7 43 c14 89 60 256 97 356 33 88 39 115
39 182 l0 79 34 0 c30 0 35 -4 41 -29 3 -15 19 -41 35 -56 79 -75 190 9 190
145 0 96 -48 160 -120 160 -31 0 -44 -7 -69 -35 -18 -21 -33 -52 -37 -75 -6
-37 -9 -40 -40 -40 l-34 0 6 193 c3 105 9 224 13 262 6 70 6 70 36 70 26 0 31
-5 46 -45 16 -44 65 -90 96 -90 36 0 85 35 106 74 27 52 29 146 4 194 -25 46
-73 74 -116 68 -44 -7 -69 -30 -83 -80 -13 -46 -23 -56 -55 -56 -22 0 -23 4
-23 68 0 99 21 416 29 424 4 4 23 5 42 2 32 -5 38 -11 48 -45 22 -74 99 -100
154 -52 54 48 73 163 38 238 -22 50 -40 64 -85 72 -31 5 -40 1 -70 -29 -24
-24 -37 -48 -42 -77 -5 -32 -12 -43 -30 -47 -50 -13 -57 -1 -51 84 4 42 10
123 13 180 l7 102 -29 0 c-69 1 -221 81 -371 196 -60 45 -85 49 -147 21 l-53
-24 -39 23 c-51 31 -70 30 -132 -8z m-112 -626 c29 -24 38 -73 46 -278 l7
-172 -82 -7 c-45 -4 -85 -5 -88 -1 -3 3 -13 98 -21 211 l-16 205 29 30 c34 35
89 41 125 12z m664 -13 c25 -19 26 -25 26 -107 -1 -91 -17 -342 -23 -348 -2
-2 -37 0 -77 4 l-74 7 2 100 c1 55 5 149 9 209 5 97 9 112 29 133 29 29 73 30
108 2z m-604 -541 c0 -7 7 -89 15 -183 8 -93 15 -180 15 -192 0 -22 -4 -23
-79 -23 -79 0 -79 0 -85 28 -11 58 -37 354 -32 368 7 19 166 21 166 2z m601 8
c10 -11 -23 -391 -36 -404 -9 -11 -29 -12 -79 -7 -78 9 -72 -17 -51 230 8 94
15 173 15 178 0 7 143 10 151 3z"/>
<path d="M3425 7469 c-483 -37 -884 -177 -1123 -394 -94 -85 -175 -215 -208
-336 -24 -86 -24 -312 0 -418 28 -126 57 -213 70 -207 87 38 323 149 330 156
5 5 -3 46 -20 97 -25 76 -29 103 -29 203 0 106 2 120 29 178 76 164 316 300
626 353 138 24 434 44 478 32 l32 -8 -58 -105 c-32 -58 -99 -175 -148 -260
-351 -602 -588 -1018 -979 -1715 -321 -573 -417 -743 -552 -974 -356 -610
-540 -816 -783 -877 -83 -21 -239 -14 -364 15 -49 12 -93 18 -97 14 -16 -17
-168 -388 -161 -394 14 -13 144 -40 233 -50 319 -33 636 105 925 402 117 121
201 225 294 364 82 123 299 483 446 742 l109 193 478 0 477 0 0 -28 c0 -16 -7
-123 -16 -238 -20 -253 -14 -519 15 -712 60 -399 175 -564 426 -609 77 -13
302 -12 423 3 l42 5 0 84 0 85 -72 72 c-110 110 -166 231 -209 447 -35 184
-41 537 -13 823 l7 68 132 0 133 0 92 156 c53 89 88 160 83 165 -5 5 -98 10
-208 11 l-200 3 2 85 c1 47 14 218 28 380 14 162 43 516 65 785 65 790 80 927
140 1232 17 83 30 158 30 167 0 14 -39 16 -397 15 -219 -1 -447 -6 -508 -10z
m170 -1480 c-30 -299 -64 -625 -74 -724 -11 -99 -25 -232 -31 -295 -6 -63 -13
-125 -16 -137 l-4 -23 -410 0 c-252 0 -410 4 -410 9 0 9 758 1342 918 1616 42
71 78 123 80 114 1 -8 -22 -260 -53 -560z"/>
<path d="M4770 7285 l0 -155 41 0 41 0 -3 118 c-4 111 -5 119 -33 155 -15 20
-32 37 -37 37 -5 0 -9 -70 -9 -155z"/>
<path d="M5203 7415 c-3 -9 -18 -22 -33 -30 -24 -13 -29 -23 -39 -90 -6 -42
-11 -96 -11 -120 l0 -45 50 0 50 0 0 150 c0 143 -3 169 -17 135z"/>
<path d="M7480 7109 c-244 -20 -559 -89 -795 -174 -151 -54 -433 -189 -555
-267 -215 -136 -447 -339 -618 -543 l-75 -90 6 -1194 c4 -657 9 -1196 11
-1198 2 -2 48 -9 102 -14 55 -6 117 -14 138 -19 50 -11 57 -7 46 31 -28 98
-42 298 -37 533 7 318 47 582 138 896 92 318 280 694 481 966 94 126 269 303
384 387 358 264 825 379 1304 322 170 -20 293 -55 429 -121 101 -49 124 -66
200 -142 98 -99 141 -166 182 -284 41 -120 59 -240 66 -435 l6 -173 133 0
c153 0 137 -14 154 130 17 149 144 947 176 1102 5 26 3 27 -103 61 -312 101
-509 147 -823 191 -306 43 -684 57 -950 35z"/>
<path d="M4602 6858 l3 -193 65 0 65 0 3 193 2 192 -70 0 -70 0 2 -192z"/>
<path d="M4772 6858 l3 -193 38 -3 37 -3 0 195 0 196 -40 0 -40 0 2 -192z"/>
<path d="M4880 6855 l0 -195 50 0 50 0 0 195 0 195 -50 0 -50 0 0 -195z"/>
<path d="M4998 6855 l3 -195 49 0 50 0 0 195 0 195 -52 0 -53 0 3 -195z"/>
<path d="M5120 6854 l0 -195 48 3 47 3 3 193 2 192 -50 0 -50 0 0 -196z"/>
<path d="M5242 6858 l3 -193 60 1 60 1 3 192 2 191 -65 0 -65 0 2 -192z"/>
<path d="M4600 6420 l0 -190 70 0 70 0 0 190 0 190 -70 0 -70 0 0 -190z"/>
<path d="M4770 6420 l0 -190 40 0 40 0 0 190 0 190 -40 0 -40 0 0 -190z"/>
<path d="M4880 6420 l0 -190 50 0 50 0 0 190 0 190 -50 0 -50 0 0 -190z"/>
<path d="M4994 6594 c3 -9 6 -94 6 -190 l0 -174 50 0 50 0 0 190 0 190 -56 0
c-47 0 -55 -3 -50 -16z"/>
<path d="M5120 6421 l0 -191 50 0 50 0 2 175 c0 96 1 181 2 188 1 8 -17 13
-51 15 l-53 3 0 -190z"/>
<path d="M5240 6420 l0 -190 65 0 65 0 0 190 0 190 -65 0 -65 0 0 -190z"/>
<path d="M4604 6165 c-4 -9 -7 -89 -8 -178 l-1 -162 73 -3 72 -3 -2 178 -3
178 -63 3 c-50 2 -63 0 -68 -13z"/>
<path d="M4798 6173 l-28 -4 0 -175 0 -174 40 0 c38 0 40 2 40 30 4 346 6 332
-52 323z"/>
<path d="M4918 6173 l-38 -4 0 -181 c0 -160 2 -179 16 -174 9 3 31 6 50 6 l34
0 -2 177 c-2 108 -7 177 -13 178 -5 1 -27 0 -47 -2z"/>
<path d="M5030 6173 l-35 -4 3 -174 3 -175 50 0 49 0 -2 177 c-3 195 1 184
-68 176z"/>
<path d="M5120 5994 c0 -166 2 -185 16 -180 9 3 32 6 52 6 l37 0 -2 177 -3
178 -50 3 -50 3 0 -187z"/>
<path d="M5240 5994 l0 -186 23 6 c12 3 41 6 65 6 l42 0 0 180 0 180 -65 0
-65 0 0 -186z"/>
<path d="M7385 5895 c-27 -7 -82 -14 -121 -14 -67 -1 -72 -3 -86 -28 -61 -120
-69 -132 -83 -127 -10 4 -15 20 -15 44 0 50 -19 66 -57 48 -39 -19 -60 -60
-48 -94 14 -39 38 -51 70 -34 50 27 49 0 -5 -113 -55 -115 -84 -140 -74 -64 5
32 2 46 -10 56 -41 34 -109 -31 -104 -98 4 -45 27 -59 69 -44 18 7 36 10 40 7
13 -8 -99 -224 -116 -224 -18 0 -19 9 -5 45 21 55 -29 85 -76 47 -44 -35 -59
-107 -28 -133 12 -10 22 -10 50 0 20 7 39 10 42 6 4 -4 -5 -29 -21 -56 -21
-38 -27 -62 -27 -108 0 -51 -19 -168 -36 -223 -3 -10 3 -21 15 -27 18 -10 24
-3 62 67 24 42 59 104 79 137 28 46 36 68 33 95 -3 21 2 43 10 55 15 19 16 19
51 3 l36 -17 -55 -116 c-30 -64 -72 -149 -93 -191 l-40 -75 24 -14 c13 -8 35
-22 48 -30 24 -14 26 -13 47 23 58 94 213 312 223 312 6 0 26 -9 44 -20 l32
-20 -26 -40 c-22 -33 -32 -40 -60 -40 -25 0 -34 -5 -40 -22 -3 -13 -33 -71
-65 -130 -33 -59 -59 -111 -59 -116 0 -5 10 -13 22 -19 19 -8 29 -2 77 47 31
31 86 74 123 95 55 32 70 46 89 87 25 53 49 64 49 20 0 -15 7 -38 16 -50 19
-27 45 -22 87 16 21 20 27 35 27 67 0 22 -5 46 -12 53 -18 18 -53 14 -73 -8
-19 -21 -40 -26 -49 -12 -3 6 108 189 127 208 14 14 46 -18 49 -49 3 -28 7
-32 36 -35 70 -7 122 98 73 147 -23 23 -51 18 -81 -14 -20 -21 -50 -24 -50 -5
0 12 130 200 139 200 17 0 40 -27 43 -50 6 -48 80 -38 105 15 13 28 14 39 5
60 -14 30 -41 32 -83 8 -22 -13 -32 -14 -40 -6 -9 9 2 33 45 99 l56 87 -41 44
c-23 25 -57 79 -76 120 -42 91 -63 113 -106 113 -23 0 -41 8 -57 25 -26 28
-48 30 -125 10z m-137 -287 c22 -22 12 -60 -34 -140 -33 -55 -51 -77 -61 -74
-8 3 -18 6 -21 6 -4 0 -15 7 -25 14 -18 14 -16 18 24 93 23 43 49 86 57 96 18
20 43 22 60 5z m286 -154 c26 -26 19 -52 -40 -135 l-55 -79 -40 20 c-22 12
-38 24 -35 28 28 44 101 151 114 165 19 21 36 22 56 1z m-413 -103 l24 -19
-48 -96 -47 -96 -36 15 c-20 8 -38 15 -40 15 -1 0 18 45 44 100 50 106 61 115
103 81z m260 -128 c16 -10 29 -21 29 -26 0 -9 -118 -187 -125 -187 -13 0 -75
35 -75 42 0 16 120 188 131 188 6 0 24 -8 40 -17z"/>
<path d="M4590 5611 l0 -159 65 -7 c35 -3 69 -4 75 0 6 4 10 67 10 166 l0 159
-75 0 -75 0 0 -159z"/>
<path d="M4770 5605 l0 -165 40 0 40 0 0 165 0 165 -40 0 -40 0 0 -165z"/>
<path d="M4880 5605 l0 -165 50 0 50 0 0 165 0 165 -50 0 -50 0 0 -165z"/>
<path d="M5000 5605 l0 -165 50 0 50 0 0 165 0 165 -50 0 -50 0 0 -165z"/>
<path d="M5120 5605 l0 -165 50 0 50 0 0 43 c0 23 2 97 4 165 l4 122 -54 0
-54 0 0 -165z"/>
<path d="M5240 5605 l0 -165 65 0 65 0 0 165 0 165 -65 0 -65 0 0 -165z"/>
<path d="M4590 5250 l0 -150 75 0 75 0 0 150 0 150 -75 0 -75 0 0 -150z"/>
<path d="M4770 5250 l0 -150 40 0 40 0 0 150 0 150 -40 0 -40 0 0 -150z"/>
<path d="M4870 5250 l0 -150 55 0 55 0 0 150 0 150 -55 0 -55 0 0 -150z"/>
<path d="M4998 5395 c-10 -10 2 -300 12 -299 6 1 28 2 50 3 l40 1 0 150 0 150
-48 0 c-27 0 -51 -2 -54 -5z"/>
<path d="M5120 5245 l0 -156 53 3 52 3 0 150 0 150 -52 3 -53 3 0 -156z"/>
<path d="M5240 5245 l0 -155 65 0 65 0 0 155 0 155 -65 0 -65 0 0 -155z"/>
<path d="M4589 4925 c-1 -69 -2 -131 -3 -137 -1 -9 22 -14 77 -16 l77 -3 0
141 0 140 -75 0 -75 0 -1 -125z"/>
<path d="M4760 4910 l0 -140 45 0 45 0 0 140 0 140 -45 0 -45 0 0 -140z"/>
<path d="M4870 4910 l0 -140 55 0 55 0 0 140 0 140 -55 0 -55 0 0 -140z"/>
<path d="M4991 4910 l3 -140 53 0 53 0 0 140 0 140 -56 0 -55 0 2 -140z"/>
<path d="M5117 4913 l2 -138 56 -3 55 -3 0 141 0 140 -57 0 -58 0 2 -137z"/>
<path d="M5240 4910 l0 -140 70 0 71 0 -3 138 -3 137 -67 3 -68 3 0 -141z"/>
<path d="M6873 4888 c-11 -13 -73 -134 -73 -142 0 -2 6 -6 14 -9 19 -8 94 139
79 154 -6 6 -13 5 -20 -3z"/>
<path d="M7012 4743 c-39 -56 -54 -95 -42 -107 8 -8 15 -6 26 9 17 21 64 111
64 120 0 16 -31 1 -48 -22z"/>
<path d="M4580 4600 l0 -130 74 0 73 0 7 61 c3 34 6 93 6 130 l0 69 -80 0 -80
0 0 -130z"/>
<path d="M4760 4600 l0 -130 45 0 45 0 0 130 0 130 -45 0 -45 0 0 -130z"/>
<path d="M4870 4600 l0 -130 55 0 55 0 0 130 0 130 -55 0 -55 0 0 -130z"/>
<path d="M4994 4603 l6 -128 50 -3 50 -3 0 130 0 131 -56 0 -55 0 5 -127z"/>
<path d="M5118 4714 c-2 -9 -2 -68 0 -130 l3 -114 55 0 54 0 0 130 0 130 -54
0 c-42 0 -55 -4 -58 -16z"/>
<path d="M5240 4600 l0 -130 70 0 70 0 0 130 0 130 -70 0 -70 0 0 -130z"/>
<path d="M6676 4649 c-51 -90 -52 -94 -32 -102 10 -4 23 10 40 43 14 27 35 64
46 82 23 39 25 58 6 58 -8 0 -35 -37 -60 -81z"/>
<path d="M6763 4698 c-5 -7 -28 -47 -51 -89 -37 -70 -39 -76 -23 -86 16 -10
24 -1 66 73 43 76 51 114 27 114 -5 0 -14 -6 -19 -12z"/>
<path d="M6794 4633 c-15 -27 -35 -63 -45 -81 -23 -41 -24 -58 -3 -66 9 -3 17
-6 19 -6 4 0 95 166 95 174 0 3 -9 10 -20 16 -17 9 -22 4 -46 -37z"/>
<path d="M6830 4558 c-40 -70 -49 -93 -38 -99 7 -5 18 -9 24 -9 8 0 69 103
102 170 1 3 -7 11 -17 17 -18 11 -24 4 -71 -79z"/>
<path d="M6885 4524 c-43 -79 -46 -87 -31 -102 8 -9 17 -14 20 -11 2 2 25 44
51 93 39 71 45 90 34 97 -8 5 -17 9 -21 9 -3 0 -27 -39 -53 -86z"/>
<path d="M6934 4489 c-48 -96 -48 -93 -2 -120 15 -8 24 3 60 73 24 46 44 88
46 95 3 11 -34 43 -50 43 -4 0 -28 -41 -54 -91z"/>
<path d="M6570 4468 c-22 -35 -39 -69 -38 -77 6 -33 29 -18 62 41 48 86 52 98
32 98 -9 0 -34 -28 -56 -62z"/>
<path d="M6612 4431 c-41 -76 -42 -80 -23 -90 17 -9 23 -5 44 32 53 91 59 108
46 123 -6 8 -14 14 -18 14 -3 0 -25 -36 -49 -79z"/>
<path d="M6703 4468 c-5 -7 -24 -41 -42 -76 -26 -51 -30 -66 -21 -77 7 -8 16
-15 20 -15 8 0 94 150 88 154 -2 1 -10 7 -19 14 -13 10 -18 10 -26 0z"/>
<path d="M6722 4365 c-40 -75 -40 -76 -19 -90 20 -14 23 -12 64 63 39 70 41
78 26 90 -9 6 -20 12 -24 12 -4 0 -26 -34 -47 -75z"/>
<path d="M4580 4310 l0 -120 75 0 75 0 0 104 c0 57 3 111 6 120 5 14 -5 16
-75 16 l-81 0 0 -120z"/>
<path d="M4750 4310 l0 -120 50 0 50 0 0 120 0 120 -50 0 -50 0 0 -120z"/>
<path d="M4870 4310 l0 -120 55 0 55 0 0 120 0 120 -55 0 -55 0 0 -120z"/>
<path d="M4990 4310 l0 -120 55 0 55 0 0 120 0 120 -55 0 -55 0 0 -120z"/>
<path d="M5111 4310 l0 -120 59 0 60 0 0 120 0 120 -59 0 -60 0 0 -120z"/>
<path d="M5240 4312 c0 -65 2 -121 4 -123 2 -2 34 -2 70 -1 l66 4 0 119 0 119
-70 0 -70 0 0 -118z"/>
<path d="M6781 4332 c-30 -59 -37 -82 -28 -91 6 -6 14 -11 18 -11 7 0 89 141
89 153 0 4 -9 11 -20 17 -18 9 -23 3 -59 -68z"/>
<path d="M6835 4302 c-22 -42 -41 -79 -42 -82 -4 -6 57 -44 61 -38 16 21 76
140 76 150 0 8 -13 21 -28 30 l-28 17 -39 -77z"/>
<path d="M6487 4323 c-32 -50 -57 -100 -57 -111 0 -6 7 -12 15 -15 10 -4 26
16 55 68 38 69 43 95 20 95 -6 0 -20 -17 -33 -37z"/>
<path d="M6513 4255 c-38 -70 -40 -76 -23 -85 21 -11 24 -9 69 73 32 56 35 87
9 87 -7 0 -32 -34 -55 -75z"/>
<path d="M6575 4236 c-22 -39 -41 -76 -43 -82 -3 -10 27 -29 33 -22 10 12 85
140 85 146 0 4 -8 12 -18 18 -16 10 -23 3 -57 -60z"/>
<path d="M6621 4193 c-40 -71 -41 -76 -24 -89 10 -7 23 -13 28 -14 8 0 85 130
85 144 0 2 -10 10 -23 19 -22 14 -24 13 -66 -60z"/>
<path d="M7901 4240 l-644 -5 -57 -113 c-31 -62 -54 -114 -51 -116 13 -8 73
-17 240 -36 95 -11 201 -27 235 -36 139 -36 227 -98 275 -196 53 -106 46 -187
-65 -673 -76 -331 -81 -354 -122 -494 l-35 -123 -56 -45 c-131 -103 -411 -217
-662 -267 -561 -114 -1051 -2 -1344 305 -72 77 -93 107 -138 199 l-52 109 -93
1 -93 0 2 -292 c1 -161 4 -313 8 -338 6 -43 9 -47 76 -87 156 -94 418 -188
640 -229 82 -16 149 -19 365 -19 233 1 281 3 395 24 189 34 392 88 715 190
487 153 718 218 930 262 52 11 98 23 102 27 4 4 15 72 23 151 39 367 130 835
211 1081 45 135 121 291 174 358 87 109 215 172 350 172 l68 0 7 73 c3 39 8
84 11 100 l6 27 -389 -2 c-213 -2 -678 -5 -1032 -8z"/>
<path d="M6687 4154 c-35 -69 -37 -79 -23 -92 18 -19 13 -25 64 69 39 72 40
76 21 87 -10 7 -20 12 -22 12 -1 0 -20 -34 -40 -76z"/>
<path d="M6377 4133 c-26 -42 -33 -61 -25 -70 13 -16 38 -17 38 -2 0 7 14 34
31 62 24 39 28 52 17 58 -22 14 -25 11 -61 -48z"/>
<path d="M6738 4120 c-21 -38 -38 -72 -38 -74 0 -3 13 -12 30 -21 l29 -15 27
47 c15 27 34 59 42 72 14 23 13 26 -8 43 -12 10 -27 18 -34 18 -6 0 -28 -32
-48 -70z"/>
<path d="M6426 4099 c-34 -57 -35 -62 -19 -74 20 -15 20 -14 66 66 21 35 24
48 15 57 -19 19 -24 15 -62 -49z"/>
<path d="M4587 4143 c-4 -3 -7 -55 -7 -115 l0 -108 75 0 75 0 0 115 0 115 -68
0 c-38 0 -72 -3 -75 -7z"/>
<path d="M4750 4035 l0 -115 50 0 50 0 0 115 0 115 -50 0 -50 0 0 -115z"/>
<path d="M4870 4035 l0 -115 55 0 55 0 0 115 0 115 -55 0 -55 0 0 -115z"/>
<path d="M4990 4036 l0 -116 55 0 56 0 -3 113 -3 112 -52 3 -53 3 0 -115z"/>
<path d="M5117 4144 c-4 -4 -7 -56 -7 -116 l0 -108 60 0 61 0 -3 113 -3 112
-50 3 c-28 2 -54 0 -58 -4z"/>
<path d="M5247 4143 c-4 -3 -7 -55 -7 -115 l0 -108 76 0 77 0 -6 68 c-4 37 -7
88 -7 115 l0 47 -63 0 c-35 0 -67 -3 -70 -7z"/>
<path d="M6495 4097 c-10 -18 -27 -47 -37 -65 -18 -30 -18 -32 -3 -39 19 -7
38 14 74 77 19 34 19 36 2 47 -15 9 -21 6 -36 -20z"/>
<path d="M6523 4033 l-36 -57 29 -23 c16 -12 31 -23 34 -23 7 0 72 131 68 135
-7 6 -47 25 -52 25 -4 0 -23 -26 -43 -57z"/>
<path d="M6322 4037 c-5 -7 -21 -34 -36 -60 -22 -38 -25 -51 -16 -63 7 -8 16
-14 20 -14 8 0 70 113 70 128 0 16 -28 22 -38 9z"/>
<path d="M6601 3988 c-36 -70 -36 -74 -16 -82 22 -8 94 122 74 135 -23 14 -26
12 -58 -53z"/>
<path d="M6346 3959 c-33 -56 -36 -64 -22 -78 19 -18 24 -14 61 57 26 47 27
54 13 68 -13 14 -19 9 -52 -47z"/>
<path d="M6647 3958 l-35 -63 22 -17 c11 -10 26 -18 31 -18 12 0 75 105 75
124 0 10 -39 36 -55 36 -2 0 -19 -28 -38 -62z"/>
<path d="M6423 3968 c-33 -44 -64 -111 -55 -120 6 -6 15 -7 20 -4 17 10 73
116 67 126 -8 14 -21 12 -32 -2z"/>
<path d="M6440 3895 c-30 -52 -34 -85 -10 -85 5 0 10 6 10 14 0 7 8 20 17 27
15 12 16 12 11 -6 -3 -11 -7 -26 -9 -34 -2 -7 1 -15 7 -18 7 -2 23 17 37 42
40 71 41 80 10 96 -16 7 -31 15 -34 17 -4 1 -21 -22 -39 -53z"/>
<path d="M6212 3848 c-29 -52 -29 -78 2 -78 16 0 69 98 62 116 -11 28 -34 13
-64 -38z"/>
<path d="M6552 3887 c-39 -49 -60 -127 -35 -127 8 0 73 110 73 123 0 12 -29
15 -38 4z"/>
<path d="M4580 3770 l0 -110 75 0 75 0 0 110 0 110 -75 0 -75 0 0 -110z"/>
<path d="M4750 3770 l0 -110 50 0 50 0 0 110 0 110 -50 0 -50 0 0 -110z"/>
<path d="M4870 3770 l0 -110 55 0 55 0 0 110 0 110 -55 0 -55 0 0 -110z"/>
<path d="M4990 3770 l0 -110 55 0 55 0 0 110 0 110 -55 0 -55 0 0 -110z"/>
<path d="M5113 3770 l0 -110 58 0 59 0 0 110 0 110 -58 0 -58 0 -1 -110z"/>
<path d="M5240 3770 l0 -110 75 0 76 0 -3 108 -3 107 -72 3 -73 3 0 -111z"/>
<path d="M6263 3812 c-29 -54 -30 -59 -14 -69 15 -10 22 -4 50 45 31 54 34 82
9 82 -7 0 -27 -26 -45 -58z"/>
<path d="M6573 3818 c-15 -29 -29 -56 -31 -60 -2 -4 10 -14 27 -22 l30 -16 32
57 32 56 -22 19 c-13 10 -27 18 -32 18 -5 0 -21 -24 -36 -52z"/>
<path d="M6312 3780 c-27 -52 -30 -61 -16 -67 18 -7 22 -2 57 58 20 35 23 49
15 57 -18 18 -21 16 -56 -48z"/>
<path d="M6361 3754 c-27 -49 -29 -60 -18 -72 12 -11 19 -5 46 44 29 50 31 58
18 71 -13 13 -18 8 -46 -43z"/>
<path d="M6406 3726 c-26 -49 -29 -76 -6 -76 13 0 62 101 56 117 -9 23 -20 14
-50 -41z"/>
<path d="M6131 3713 c-29 -52 -30 -57 -13 -69 20 -15 21 -14 60 52 28 48 29
51 11 62 -10 7 -21 12 -23 12 -3 0 -18 -25 -35 -57z"/>
<path d="M6450 3699 c-28 -55 -31 -79 -10 -79 9 0 70 104 70 119 0 5 -7 11
-15 15 -11 4 -24 -12 -45 -55z"/>
<path d="M6191 3687 c-35 -61 -37 -72 -17 -80 17 -7 26 3 56 62 19 38 20 45 7
58 -13 13 -18 8 -46 -40z"/>
<path d="M6492 3670 l-32 -59 24 -17 c32 -20 40 -14 72 49 l26 51 -22 18 c-12
10 -25 18 -29 18 -3 0 -21 -27 -39 -60z"/>
<path d="M6240 3648 c-28 -45 -30 -52 -17 -66 13 -13 19 -8 46 39 35 62 36 65
17 72 -10 4 -25 -11 -46 -45z"/>
<path d="M6287 3621 c-31 -56 -33 -67 -12 -74 21 -9 83 102 64 114 -22 14 -24
12 -52 -40z"/>
<path d="M6335 3590 c-24 -47 -26 -70 -5 -70 12 0 62 99 55 110 -12 20 -25 9
-50 -40z"/>
<path d="M6057 3580 c-23 -41 -26 -54 -17 -65 19 -23 23 -19 58 42 25 43 30
58 20 64 -24 16 -33 9 -61 -41z"/>
<path d="M4579 3535 c-1 -47 -2 -91 -3 -97 -1 -9 22 -14 77 -16 l77 -3 0 101
0 100 -75 0 -75 0 -1 -85z"/>
<path d="M4750 3520 l0 -100 50 0 50 0 0 100 0 100 -50 0 -50 0 0 -100z"/>
<path d="M4870 3521 l0 -99 51 -4 c28 -1 53 -1 55 1 2 2 4 49 4 103 l0 98 -55
0 -55 0 0 -99z"/>
<path d="M4990 3515 l0 -105 55 0 55 0 0 105 0 105 -55 0 -55 0 0 -105z"/>
<path d="M5115 3519 l1 -100 57 -3 57 -3 0 104 0 103 -58 0 -59 0 2 -101z"/>
<path d="M5240 3515 l0 -106 73 3 72 3 0 100 0 100 -72 3 -73 3 0 -106z"/>
<path d="M6402 3607 c-5 -7 -19 -31 -31 -55 -21 -41 -21 -62 -1 -62 8 0 42 56
68 111 6 13 -27 18 -36 6z"/>
<path d="M6111 3548 c-22 -38 -27 -56 -19 -65 17 -21 25 -16 58 43 25 45 29
59 18 65 -21 14 -25 11 -57 -43z"/>
<path d="M6442 3578 c-14 -18 -54 -99 -50 -103 10 -8 50 -26 52 -23 1 2 17 26
34 55 l31 52 -22 16 c-26 18 -32 19 -45 3z"/>
<path d="M5452 3503 l3 -68 60 -7 c85 -11 217 -46 306 -80 l77 -30 -42 -72
c-24 -39 -91 -156 -151 -261 -59 -104 -115 -198 -123 -207 -9 -11 -29 -18 -49
-18 -41 0 -42 -10 -7 -87 24 -55 26 -57 41 -38 15 20 297 514 337 590 12 22
24 42 27 45 3 3 17 26 32 53 25 46 25 48 6 60 -10 6 -19 18 -19 25 0 10 4 10
16 -2 8 -9 21 -16 28 -16 15 0 59 87 51 101 -12 18 -35 8 -50 -21 -14 -28 -17
-29 -38 -16 -78 49 -333 116 -445 116 l-63 0 3 -67z"/>
<path d="M6167 3519 c-27 -47 -30 -79 -8 -79 14 0 73 108 66 120 -13 21 -31 8
-58 -41z"/>
<path d="M6211 3483 c-17 -31 -30 -57 -28 -58 1 0 10 -6 19 -14 15 -11 20 -6
48 50 25 49 29 64 18 70 -22 14 -25 11 -57 -48z"/>
<path d="M6262 3450 c-28 -51 -31 -61 -17 -66 19 -8 17 -11 49 54 24 48 27 72
8 72 -4 0 -22 -27 -40 -60z"/>
<path d="M6327 3468 c-40 -66 -57 -100 -52 -109 13 -21 32 -6 61 51 25 48 29
62 18 71 -9 8 -16 5 -27 -13z"/>
<path d="M6041 3424 c-21 -38 -22 -47 -10 -55 22 -14 26 -12 52 35 18 32 22
47 14 55 -19 19 -32 12 -56 -35z"/>
<path d="M6345 3403 c-16 -32 -31 -61 -33 -64 -3 -6 49 -32 53 -27 11 13 67
120 64 122 -6 5 -47 26 -51 26 -2 0 -17 -26 -33 -57z"/>
<path d="M6097 3396 c-18 -32 -22 -47 -14 -55 20 -20 33 -12 55 34 21 43 21
45 3 55 -17 8 -23 4 -44 -34z"/>
<path d="M6149 3364 c-21 -39 -22 -46 -9 -54 23 -15 24 -13 48 35 21 43 21 45
3 54 -16 9 -22 4 -42 -35z"/>
<path d="M4580 3375 c-1 -3 -1 -44 -1 -92 l-1 -88 76 -3 76 -3 0 96 0 95 -75
0 c-41 0 -75 -2 -75 -5z"/>
<path d="M4750 3285 l0 -95 50 0 50 0 0 95 0 95 -50 0 -50 0 0 -95z"/>
<path d="M4870 3285 l0 -95 55 0 55 0 0 95 0 95 -55 0 -55 0 0 -95z"/>
<path d="M4990 3285 l0 -95 55 0 55 0 0 95 0 95 -55 0 -55 0 0 -95z"/>
<path d="M5110 3286 c0 -52 3 -97 8 -99 4 -2 31 -2 60 1 l52 4 0 94 0 94 -60
0 -60 0 0 -94z"/>
<path d="M5240 3287 c0 -51 2 -96 4 -98 2 -2 36 -2 75 -1 l72 4 -3 91 -3 92
-72 3 -73 3 0 -94z"/>
<path d="M6200 3335 c-20 -32 -20 -55 0 -55 13 0 52 68 45 80 -11 18 -23 11
-45 -25z"/>
<path d="M5975 3317 c-30 -52 -30 -54 -6 -67 17 -8 24 -3 51 42 25 40 29 53
18 59 -25 16 -37 9 -63 -34z"/>
<path d="M6245 3309 c-25 -55 -6 -74 24 -24 25 42 26 51 7 58 -9 4 -20 -8 -31
-34z"/>
<path d="M6046 3308 c-8 -13 -20 -36 -28 -53 -7 -16 -16 -32 -19 -35 -4 -3
-93 -156 -198 -340 -174 -305 -208 -377 -176 -374 6 0 73 110 151 245 77 134
169 291 204 348 50 83 60 105 49 113 -11 8 -10 9 3 4 24 -7 77 92 56 105 -20
13 -26 11 -42 -13z"/>
<path d="M6285 3283 c-22 -50 -27 -60 -58 -114 l-27 -46 89 -71 c49 -39 109
-94 133 -121 123 -137 169 -330 117 -497 -29 -94 -61 -146 -146 -235 l-73 -76
37 -7 c21 -3 59 -6 84 -6 44 0 50 3 96 54 27 29 65 84 85 122 101 193 102 392
3 602 -53 112 -141 210 -253 282 -42 27 -69 51 -63 55 6 3 18 20 27 37 14 28
14 31 -3 44 -26 20 -30 18 -48 -23z"/>
<path d="M6085 3255 c-26 -45 -26 -65 0 -65 17 0 69 86 60 100 -13 21 -34 9
-60 -35z"/>
<path d="M6134 3224 c-22 -38 -25 -48 -13 -55 23 -14 28 -11 54 41 30 59 30
60 5 60 -12 0 -29 -16 -46 -46z"/>
<path d="M5856 3107 c-44 -78 -127 -225 -184 -325 -80 -142 -102 -189 -98
-208 9 -34 19 -30 46 19 39 70 260 461 270 477 57 90 88 156 78 167 -6 7 -16
13 -22 13 -6 -1 -47 -65 -90 -143z"/>
<path d="M6187 3200 c-26 -47 -28 -70 -7 -70 13 0 62 99 55 110 -11 18 -20 11
-48 -40z"/>
<path d="M6006 3112 c-41 -70 -44 -78 -29 -92 10 -10 17 -11 20 -4 2 7 22 41
43 77 44 73 47 82 25 91 -10 4 -28 -17 -59 -72z"/>
<path d="M6051 3084 c-39 -67 -42 -77 -29 -91 14 -13 21 -5 63 67 39 66 45 84
34 91 -8 5 -16 9 -19 9 -3 -1 -25 -35 -49 -76z"/>
<path d="M4580 3070 l0 -80 75 0 75 0 0 80 0 80 -75 0 -75 0 0 -80z"/>
<path d="M4750 3070 l0 -80 50 0 50 0 0 80 0 80 -50 0 -50 0 0 -80z"/>
<path d="M4870 3071 l0 -79 51 -4 c28 -1 53 -1 55 1 2 2 4 40 4 83 l0 78 -55
0 -55 0 0 -79z"/>
<path d="M4992 3068 l3 -83 50 0 50 0 3 83 3 82 -56 0 -56 0 3 -82z"/>
<path d="M5112 3068 l3 -83 55 0 55 0 3 83 3 82 -61 0 -61 0 3 -82z"/>
<path d="M5240 3065 l0 -85 75 0 75 0 0 85 0 85 -75 0 -75 0 0 -85z"/>
<path d="M6109 3073 c-18 -32 -87 -155 -154 -273 -232 -409 -235 -413 -219
-430 9 -9 17 -11 23 -5 7 8 107 186 392 700 15 27 25 53 23 57 -13 20 -35 3
-65 -49z"/>
<path d="M5985 2732 c-115 -207 -211 -381 -213 -387 -5 -19 207 -145 243 -145
14 0 35 93 35 151 0 44 -34 161 -61 207 l-19 33 104 182 c165 291 172 308 139
326 -16 8 -45 -40 -228 -367z"/>
<path d="M5927 2983 c-13 -21 -84 -143 -157 -271 -121 -212 -132 -234 -118
-249 19 -19 5 -40 173 257 71 124 136 237 147 252 18 27 18 27 -1 38 -18 9
-24 5 -44 -27z"/>
<path d="M5986 2968 c-22 -35 -186 -321 -251 -436 -47 -84 -55 -105 -45 -117
18 -22 23 -19 45 22 11 21 67 121 124 223 57 102 119 213 138 247 32 58 36 83
13 83 -5 0 -16 -10 -24 -22z"/>
<path d="M4580 2870 l0 -80 75 0 75 0 0 80 0 80 -75 0 -75 0 0 -80z"/>
<path d="M4750 2871 l0 -79 50 -4 50 -3 0 83 0 82 -50 0 -50 0 0 -79z"/>
<path d="M4870 2864 l0 -82 55 1 55 1 0 81 0 81 -55 0 -55 1 0 -83z"/>
<path d="M4994 2939 c-2 -4 -4 -42 -2 -84 l2 -76 50 3 51 3 0 79 0 78 -48 2
c-27 1 -50 -1 -53 -5z"/>
<path d="M5110 2866 c0 -41 3 -77 8 -79 4 -2 31 -2 60 1 l52 4 0 74 0 74 -60
0 -60 0 0 -74z"/>
<path d="M5241 2865 l1 -75 74 0 74 0 0 75 0 75 -75 0 -75 0 1 -75z"/>
<path d="M4580 2736 c0 -16 129 -176 142 -176 4 0 8 43 8 95 l0 95 -75 0 c-58
0 -75 -3 -75 -14z"/>
<path d="M4750 2638 l1 -113 44 -47 c24 -27 46 -48 49 -48 3 0 6 72 6 160 l0
160 -50 0 -50 0 0 -112z"/>
<path d="M4870 2577 l0 -173 48 -47 c26 -26 51 -47 55 -47 4 0 7 99 7 220 l0
220 -55 0 -55 0 0 -173z"/>
<path d="M4990 2519 l0 -230 38 -35 c77 -73 72 -89 72 221 l0 275 -55 0 -55 0
0 -231z"/>
<path d="M5117 2743 c-4 -3 -7 -131 -7 -283 l0 -278 55 -41 c30 -22 57 -41 60
-41 3 0 5 146 5 325 l0 325 -53 0 c-30 0 -57 -3 -60 -7z"/>
</g>
</svg>
