<svg id="svg" version="1.1" xmlns="http://www.w3.org/2000/svg" xmlns:xlink="http://www.w3.org/1999/xlink" width="400" height="400" viewBox="0, 0, 400,400"><g id="svgg"><path id="path0" d="M186.719 8.999 C 96.625 15.872,23.369 84.251,10.971 173.047 C 9.479 183.736,9.184 188.316,9.185 200.781 C 9.187 213.409,9.368 215.953,11.132 228.125 C 21.286 298.192,73.061 360.163,139.063 381.249 C 190.106 397.556,239.215 394.280,285.352 371.489 C 380.258 324.606,418.989 208.933,371.521 114.136 C 336.965 45.125,263.209 3.164,186.719 8.999 M204.004 85.545 L 205.457 86.324 207.173 85.490 C 209.490 84.364,210.511 84.695,213.236 87.454 C 214.762 88.999,216.091 89.940,217.406 90.406 C 221.608 91.896,221.197 91.168,220.901 96.589 C 220.757 99.217,220.555 101.675,220.450 102.051 C 220.170 103.057,221.056 102.884,221.449 101.855 C 222.951 97.928,226.778 99.629,226.671 104.177 C 226.568 108.597,223.124 110.287,221.512 106.709 C 220.488 104.437,219.933 106.382,219.925 112.265 L 219.922 114.959 220.813 113.632 C 223.418 109.754,227.218 114.140,225.398 118.925 C 224.572 121.099,221.372 121.231,220.577 119.123 C 219.864 117.233,219.618 117.765,219.349 121.777 C 219.209 123.872,219.064 125.850,219.026 126.172 C 218.891 127.335,219.548 127.119,220.216 125.781 C 221.792 122.623,225.040 124.071,225.285 128.042 C 225.578 132.783,220.949 135.209,219.920 130.853 C 219.421 128.739,218.750 129.605,218.750 132.364 C 218.750 135.722,218.402 136.690,216.174 139.535 C 214.176 142.085,213.281 143.989,213.281 145.691 L 213.281 146.875 205.078 146.875 L 196.875 146.875 196.875 145.495 C 196.875 143.617,196.158 142.082,193.799 138.911 C 192.222 136.793,191.783 135.880,191.730 134.615 C 191.537 129.956,191.072 144.089,190.819 162.305 C 190.634 175.651,190.685 187.063,190.962 194.419 L 191.393 205.831 190.250 210.630 C 186.424 226.704,187.009 243.116,191.831 254.965 C 193.631 259.390,193.693 259.191,190.818 258.202 C 180.200 254.549,176.967 246.777,176.317 223.340 L 176.049 213.672 159.606 213.676 L 143.164 213.679 141.211 217.272 C 125.558 246.068,110.938 259.394,94.922 259.464 C 90.424 259.484,85.547 258.321,85.547 257.229 C 85.547 256.691,88.526 248.456,89.444 246.458 L 89.905 245.454 92.120 246.216 C 99.546 248.770,108.886 246.592,115.820 240.690 C 123.534 234.124,130.341 223.920,146.481 194.727 C 158.160 173.603,168.402 155.356,172.894 147.668 C 174.459 144.989,175.705 142.771,175.663 142.739 C 175.312 142.475,159.109 143.435,156.055 143.902 C 142.918 145.907,138.528 151.357,141.419 162.070 C 141.894 163.830,142.217 165.321,142.137 165.385 C 141.488 165.901,132.946 169.017,132.735 168.815 C 131.237 167.385,130.791 158.207,132.025 154.212 C 135.739 142.190,147.600 136.553,172.070 135.181 C 183.580 134.535,184.249 134.460,185.827 133.627 C 186.640 133.198,187.076 132.839,186.796 132.830 C 185.410 132.783,184.667 127.860,185.735 125.794 C 186.904 123.534,190.625 124.284,190.625 126.780 C 190.625 127.090,190.828 127.344,191.075 127.344 C 191.404 127.344,191.455 126.115,191.265 122.781 C 191.020 118.505,190.745 117.139,190.350 118.242 C 188.892 122.313,185.131 121.244,184.843 116.677 C 184.544 111.949,188.716 110.078,190.019 114.355 C 190.609 116.292,190.811 115.004,190.625 110.481 C 190.489 107.169,190.282 105.678,189.941 105.565 C 189.668 105.475,189.453 105.723,189.453 106.131 C 189.453 107.963,187.620 109.065,185.760 108.351 C 184.265 107.778,183.480 104.112,184.358 101.804 C 185.351 99.190,188.449 99.223,189.203 101.855 C 189.984 104.585,190.293 103.037,190.021 97.754 C 189.869 94.800,189.681 92.311,189.602 92.223 C 189.286 91.869,190.384 91.015,191.161 91.012 C 192.695 91.005,195.885 89.200,197.433 87.464 C 200.016 84.566,201.415 84.157,204.004 85.545 M195.530 101.259 C 194.226 103.120,194.677 103.823,197.266 103.969 C 199.549 104.098,199.611 104.075,199.610 103.114 C 199.609 101.600,198.568 100.391,197.266 100.391 C 196.543 100.391,195.920 100.703,195.530 101.259 M211.546 101.259 C 210.116 103.300,210.685 104.297,213.281 104.297 L 215.625 104.297 215.625 103.099 C 215.625 100.422,212.970 99.225,211.546 101.259 M195.369 110.644 C 195.507 112.846,195.639 114.956,195.662 115.332 C 195.696 115.895,196.082 116.016,197.852 116.016 C 199.709 116.016,200.000 116.117,200.000 116.765 C 200.000 117.177,200.107 117.792,200.237 118.132 C 200.437 118.654,200.103 118.750,198.089 118.750 L 195.703 118.750 195.705 120.020 C 195.707 120.718,195.821 122.739,195.959 124.512 L 196.210 127.734 198.691 127.734 L 201.172 127.734 201.172 128.952 C 201.172 129.977,201.048 130.137,200.391 129.965 C 199.962 129.853,199.512 129.920,199.391 130.115 C 199.271 130.309,198.460 130.469,197.590 130.469 L 196.007 130.469 196.281 131.934 C 196.611 133.704,197.003 134.225,198.241 134.535 C 199.288 134.798,199.326 134.939,200.010 141.001 C 200.239 143.034,200.530 144.792,200.657 144.907 C 200.784 145.023,200.780 144.238,200.649 143.164 C 199.921 137.182,199.939 134.203,200.709 133.242 L 201.460 132.304 202.134 136.953 C 203.821 148.596,203.946 146.860,202.354 133.885 C 201.332 125.557,200.002 110.764,200.000 107.715 C 200.000 106.658,199.961 106.641,197.559 106.640 L 195.117 106.640 195.369 110.644 M210.763 107.129 C 210.680 107.397,210.512 109.023,210.390 110.742 C 209.901 117.592,208.925 127.114,208.028 133.789 C 206.561 144.709,206.540 144.922,206.931 144.922 C 207.132 144.922,207.625 142.008,208.029 138.448 L 208.762 131.973 209.752 133.178 C 211.489 135.290,214.063 134.503,214.063 131.859 C 214.063 130.496,213.152 130.095,210.033 130.082 C 209.064 130.079,208.947 129.950,209.056 129.004 C 209.176 127.964,209.263 127.926,211.816 127.814 L 214.453 127.699 214.453 126.213 C 214.453 125.396,214.566 123.392,214.704 121.760 L 214.955 118.792 212.653 118.673 C 210.383 118.556,210.352 118.539,210.352 117.383 C 210.352 116.218,210.367 116.210,212.793 116.095 L 215.234 115.978 215.237 113.946 C 215.239 112.829,215.352 110.728,215.489 109.277 L 215.738 106.641 213.325 106.641 C 211.736 106.641,210.862 106.807,210.763 107.129 M190.625 130.469 C 190.625 130.684,190.801 130.859,191.016 130.859 C 191.230 130.859,191.420 131.343,191.437 131.934 C 191.454 132.524,191.559 132.781,191.671 132.503 C 191.950 131.807,191.477 130.078,191.008 130.078 C 190.797 130.078,190.625 130.254,190.625 130.469 M210.591 135.547 C 210.546 136.084,210.288 138.413,210.017 140.723 C 209.746 143.032,209.647 144.922,209.796 144.922 C 210.184 144.922,211.034 137.575,210.837 135.937 C 210.717 134.948,210.649 134.840,210.591 135.547 M204.972 154.243 L 204.883 160.352 203.809 160.475 L 202.734 160.599 202.734 154.355 C 202.734 147.882,202.820 147.552,204.386 147.959 C 204.995 148.116,205.053 148.737,204.972 154.243 M207.725 154.247 L 207.617 160.352 206.543 160.475 L 205.469 160.599 205.469 154.355 C 205.469 147.869,205.552 147.552,207.139 147.963 C 207.771 148.127,207.822 148.677,207.725 154.247 M199.131 154.199 L 199.023 160.352 197.949 160.475 L 196.875 160.599 196.875 154.583 C 196.875 148.169,196.902 148.047,198.317 148.047 L 199.239 148.047 199.131 154.199 M202.121 149.121 C 202.105 149.604,202.061 152.373,202.023 155.273 L 201.953 160.547 200.781 160.547 L 199.609 160.547 199.609 154.272 L 199.609 147.997 200.879 148.120 C 201.909 148.219,202.143 148.408,202.121 149.121 M210.459 154.199 C 210.356 160.112,210.320 160.356,209.531 160.469 C 208.576 160.605,208.211 158.180,208.206 151.660 L 208.203 148.047 209.385 148.047 L 210.567 148.047 210.459 154.199 M213.281 154.297 L 213.281 160.547 212.362 160.547 C 211.325 160.547,210.938 158.036,210.938 151.308 L 210.938 148.047 212.109 148.047 L 213.281 148.047 213.281 154.297 M282.390 149.426 C 289.493 150.305,305.615 154.022,306.707 155.032 C 306.850 155.165,306.546 157.798,306.030 160.884 C 305.127 166.280,303.467 177.886,302.941 182.480 C 302.664 184.900,302.360 185.140,299.572 185.151 L 298.167 185.156 297.931 179.980 C 297.438 169.158,294.101 164.025,284.661 159.570 C 255.642 145.875,223.364 168.254,216.206 207.031 C 215.631 210.146,215.086 213.091,214.995 213.574 L 214.829 214.453 204.508 214.453 C 198.831 214.453,194.101 214.314,193.996 214.145 C 193.891 213.975,194.169 212.129,194.612 210.043 L 195.419 206.250 205.327 206.250 C 213.873 206.250,215.234 206.169,215.234 205.664 C 215.234 205.159,213.909 205.078,205.651 205.078 L 196.068 205.078 196.179 200.684 C 196.285 196.462,196.324 196.284,197.168 196.164 C 197.973 196.050,198.047 196.194,198.047 197.889 C 198.047 200.002,198.445 199.932,198.798 197.758 L 199.036 196.289 206.940 196.183 C 213.608 196.094,214.844 195.987,214.844 195.500 C 214.844 195.008,213.644 194.922,206.836 194.922 L 198.828 194.922 198.832 191.699 C 198.839 186.548,199.101 185.547,200.442 185.547 L 201.563 185.547 201.601 189.160 C 201.646 193.318,202.241 192.492,202.305 188.184 L 202.344 185.547 203.516 185.547 C 204.466 185.547,204.688 185.711,204.688 186.415 L 204.688 187.283 205.296 186.415 C 205.861 185.608,206.204 185.547,210.178 185.547 C 213.718 185.547,214.453 185.446,214.453 184.961 C 214.453 184.474,213.694 184.375,209.961 184.375 L 205.469 184.375 205.469 179.297 L 205.469 174.219 206.641 174.219 L 207.813 174.219 207.813 178.190 C 207.813 180.374,207.940 182.034,208.096 181.878 C 208.252 181.721,208.332 179.923,208.272 177.880 L 208.164 174.166 209.453 174.290 C 210.628 174.403,210.763 174.552,210.980 175.977 L 211.217 177.539 211.273 175.879 C 211.325 174.324,211.399 174.219,212.451 174.219 C 213.351 174.219,214.259 173.515,217.041 170.660 C 233.295 153.977,256.983 146.280,282.390 149.426 M174.195 157.494 C 173.065 159.495,170.180 164.736,167.784 169.141 C 165.388 173.545,159.967 183.487,155.738 191.234 C 151.508 198.981,148.047 205.535,148.047 205.799 C 148.047 206.172,151.175 206.258,162.012 206.182 L 175.977 206.085 175.867 187.906 C 175.807 177.907,175.909 166.211,176.093 161.914 C 176.277 157.617,176.388 154.046,176.339 153.978 C 176.291 153.910,175.326 155.492,174.195 157.494 M198.893 162.101 C 199.520 163.942,198.571 172.855,197.744 172.896 C 196.425 172.963,196.369 172.654,196.675 166.956 C 196.949 161.823,196.973 161.719,197.859 161.719 C 198.356 161.719,198.822 161.891,198.893 162.101 M201.953 167.383 L 201.953 173.047 200.812 173.047 C 199.287 173.047,199.051 171.888,199.409 166.155 L 199.686 161.719 200.820 161.719 L 201.953 161.719 201.953 167.383 M205.051 166.819 C 205.043 169.624,204.939 172.172,204.820 172.483 C 204.476 173.380,202.737 173.200,202.720 172.266 C 202.713 171.836,202.706 169.463,202.706 166.992 C 202.706 164.521,202.713 162.324,202.720 162.109 C 202.728 161.895,203.259 161.719,203.900 161.719 L 205.066 161.719 205.051 166.819 M207.813 167.383 L 207.813 173.047 206.641 173.047 L 205.469 173.047 205.469 167.383 L 205.469 161.719 206.641 161.719 L 207.813 161.719 207.813 167.383 M210.682 164.941 C 211.200 171.592,210.962 173.047,209.357 173.047 C 208.719 173.047,207.874 162.959,208.436 162.049 C 209.407 160.477,210.438 161.804,210.682 164.941 M213.416 165.527 C 213.876 172.475,213.852 172.656,212.500 172.656 L 211.328 172.656 211.328 167.188 L 211.328 161.719 212.246 161.719 C 213.129 161.719,213.173 161.862,213.416 165.527 M198.828 176.896 C 198.828 182.336,198.440 184.375,197.405 184.375 C 196.485 184.375,196.484 184.371,196.484 179.297 L 196.484 174.219 197.656 174.219 L 198.828 174.219 198.828 176.896 M201.867 179.199 L 201.758 184.180 200.488 184.302 L 199.219 184.424 199.219 179.322 L 199.219 174.219 200.598 174.219 L 201.976 174.219 201.867 179.199 M204.878 174.902 C 204.806 175.278,204.734 177.563,204.717 179.980 L 204.688 184.375 203.516 184.375 L 202.344 184.375 202.344 179.297 L 202.344 174.219 203.676 174.219 C 204.735 174.219,204.982 174.359,204.878 174.902 M265.936 180.076 C 266.421 180.928,266.893 181.246,267.676 181.248 C 269.130 181.251,270.141 182.365,270.451 184.305 C 270.605 185.264,271.183 186.457,271.878 187.248 C 273.359 188.935,273.355 188.978,271.484 191.649 C 269.742 194.136,269.547 194.760,270.703 194.141 C 272.941 192.943,273.871 195.910,271.914 198.006 C 270.311 199.721,267.973 199.176,268.488 197.207 C 268.791 196.047,268.112 196.373,267.277 197.788 C 266.854 198.504,266.181 199.603,265.780 200.229 C 265.142 201.227,265.136 201.301,265.724 200.835 C 268.050 198.994,269.354 202.390,267.232 204.765 C 265.856 206.306,264.063 205.922,264.063 204.087 C 264.063 202.752,263.600 203.102,262.099 205.570 C 261.415 206.696,261.084 207.397,261.365 207.129 C 263.639 204.952,265.380 208.292,263.241 210.729 C 261.583 212.616,259.302 211.972,259.875 209.778 C 260.182 208.607,259.936 208.791,258.596 210.738 C 257.746 211.974,256.826 212.735,255.481 213.313 C 254.430 213.765,253.268 214.470,252.897 214.880 C 251.958 215.917,251.821 215.877,247.670 213.347 L 243.973 211.094 244.051 206.872 C 244.116 203.355,244.265 202.430,244.948 201.325 C 245.742 200.040,245.549 199.529,244.620 200.458 C 243.904 201.174,242.187 200.236,242.189 199.129 C 242.194 195.834,246.182 194.074,246.567 197.197 C 246.682 198.130,246.830 197.984,247.943 195.840 L 249.190 193.438 248.064 193.863 C 245.642 194.777,244.772 191.887,246.845 189.814 C 248.484 188.175,250.766 188.756,250.262 190.683 C 249.921 191.986,250.360 191.445,251.543 189.102 L 252.706 186.797 251.580 187.222 C 249.181 188.128,248.333 185.378,250.324 183.150 C 251.827 181.468,253.513 181.757,253.521 183.699 C 253.526 184.864,253.646 184.745,255.093 182.136 L 256.659 179.311 258.896 179.534 C 260.126 179.657,261.572 179.577,262.109 179.357 C 263.993 178.583,265.218 178.813,265.936 180.076 M198.438 190.234 L 198.438 194.922 197.266 194.922 L 196.094 194.922 196.094 190.495 C 196.094 185.731,196.147 185.547,197.526 185.547 C 198.430 185.547,198.438 185.584,198.438 190.234 M256.328 186.406 C 255.615 187.119,255.749 187.423,257.083 188.113 C 258.093 188.635,258.365 188.654,258.640 188.220 C 259.664 186.605,257.684 185.051,256.328 186.406 M253.766 191.117 L 252.388 193.555 253.245 194.230 C 254.599 195.296,254.988 195.077,256.277 192.524 C 257.542 190.018,257.548 190.060,255.795 189.054 C 255.258 188.745,254.905 189.105,253.766 191.117 M264.531 191.484 C 263.824 192.191,263.952 192.501,265.219 193.156 C 266.309 193.720,266.402 193.707,266.812 192.941 C 267.656 191.363,265.823 190.193,264.531 191.484 M261.534 195.960 L 260.066 198.171 260.990 198.881 C 262.341 199.920,262.552 199.819,264.140 197.372 L 265.585 195.146 264.531 194.450 C 263.103 193.509,263.190 193.465,261.534 195.960 M251.078 196.191 C 250.762 196.675,250.143 197.778,249.702 198.643 L 248.901 200.216 250.167 201.046 L 251.433 201.875 252.702 199.303 L 253.970 196.731 253.059 196.030 C 251.888 195.129,251.766 195.139,251.078 196.191 M257.269 202.218 L 255.749 204.406 256.683 205.124 C 258.008 206.142,258.366 206.048,259.456 204.395 C 261.447 201.373,261.468 201.264,260.182 200.599 C 258.726 199.846,259.037 199.673,257.269 202.218 M247.689 202.832 C 247.116 204.343,248.770 205.371,249.922 204.219 C 250.651 203.489,250.480 202.901,249.396 202.406 C 248.086 201.810,248.075 201.812,247.689 202.832 M254.459 206.830 C 253.993 208.684,255.326 209.752,256.563 208.516 C 257.327 207.751,257.104 207.089,255.868 206.450 C 254.738 205.865,254.698 205.876,254.459 206.830 M245.908 212.926 C 249.046 214.908,249.530 213.358,241.943 225.629 C 238.372 231.406,234.534 237.627,233.416 239.453 C 232.298 241.279,230.359 244.355,229.107 246.289 C 224.587 253.274,219.950 260.957,220.620 260.352 C 221.058 259.956,229.579 246.628,232.607 241.602 C 233.513 240.098,236.330 235.527,238.866 231.445 C 241.403 227.363,244.705 222.002,246.205 219.531 C 249.444 214.196,249.127 214.596,249.680 215.149 C 250.017 215.486,249.760 216.205,248.641 218.052 C 247.822 219.403,246.812 221.123,246.394 221.875 C 245.072 224.259,246.773 221.941,248.730 218.691 C 250.290 216.103,251.563 215.070,251.563 216.392 C 251.563 216.634,245.383 226.887,234.729 244.321 L 232.829 247.431 235.549 249.914 C 242.697 256.438,243.695 265.257,238.084 272.316 C 236.292 274.570,236.186 274.430,240.430 275.411 C 247.771 277.107,258.313 276.071,264.692 273.027 C 271.846 269.612,273.216 267.569,275.974 256.205 C 280.717 236.662,279.743 233.825,267.900 232.695 L 263.194 232.246 263.447 230.093 C 263.785 227.219,263.472 227.318,270.117 227.989 C 277.577 228.744,296.269 228.852,304.047 228.187 C 310.775 227.611,310.346 227.453,309.910 230.353 L 309.570 232.617 306.609 232.858 C 298.140 233.547,296.054 236.910,292.201 256.092 C 291.550 259.336,290.736 264.433,290.393 267.420 C 289.652 273.866,290.378 272.904,285.237 274.249 C 282.895 274.861,276.953 276.609,272.032 278.134 C 253.492 283.877,247.628 284.984,237.500 284.649 C 221.488 284.120,208.132 276.920,201.090 265.022 C 198.168 260.083,197.388 260.563,207.900 260.825 C 217.318 261.060,220.025 260.881,219.705 260.044 C 219.567 259.685,216.971 259.598,208.971 259.686 L 198.418 259.802 197.459 257.733 L 196.501 255.664 207.083 255.469 L 217.666 255.273 221.490 249.219 C 236.387 225.634,244.262 212.882,244.056 212.676 C 243.988 212.608,242.509 214.870,240.769 217.702 C 235.124 226.890,223.822 244.705,218.853 252.246 L 217.502 254.297 206.788 254.297 L 196.074 254.297 195.751 253.418 C 195.573 252.935,195.310 252.056,195.167 251.465 L 194.907 250.391 205.852 250.391 C 216.536 250.391,216.797 250.409,216.797 251.172 C 216.797 252.570,217.343 252.002,219.850 248.001 C 222.714 243.429,222.683 243.242,218.821 241.858 C 214.532 240.322,214.693 240.310,214.987 242.143 L 215.244 243.750 204.350 243.750 L 193.457 243.750 193.213 242.529 C 193.079 241.858,192.969 240.715,192.969 239.990 L 192.969 238.672 203.809 238.581 C 218.844 238.455,218.015 238.391,221.019 239.899 C 222.457 240.621,223.747 241.264,223.887 241.328 C 224.131 241.441,227.992 235.460,238.271 219.043 C 240.927 214.800,243.163 211.328,243.240 211.328 C 243.316 211.328,244.517 212.047,245.908 212.926 M243.738 216.100 C 241.803 219.378,228.381 240.869,223.081 249.177 C 219.147 255.343,218.183 257.043,218.642 257.009 C 218.809 256.997,221.230 253.285,224.023 248.761 C 226.816 244.237,230.666 238.051,232.577 235.014 C 238.896 224.975,245.753 213.591,245.584 213.422 C 245.492 213.330,244.661 214.536,243.738 216.100 M244.833 217.658 C 242.954 220.851,233.113 236.637,222.888 252.861 C 221.017 255.831,219.541 258.428,219.609 258.633 C 219.678 258.838,220.631 257.551,221.728 255.772 C 222.826 253.994,226.406 248.232,229.684 242.969 C 241.515 223.974,247.336 214.393,247.155 214.212 C 247.053 214.110,246.008 215.661,244.833 217.658 M214.603 218.848 C 214.485 220.620,214.311 222.313,214.217 222.610 C 214.053 223.131,193.317 223.135,192.797 222.614 C 192.624 222.442,193.260 217.117,193.573 216.113 C 193.690 215.738,196.177 215.625,204.272 215.625 L 214.819 215.625 214.603 218.848 M214.063 227.356 L 214.063 230.469 203.074 230.469 L 192.085 230.469 192.269 227.603 C 192.370 226.027,192.552 224.577,192.673 224.381 C 192.800 224.175,197.370 224.070,203.478 224.133 L 214.063 224.243 214.063 227.356 M241.581 229.590 C 239.893 232.329,235.620 239.229,232.086 244.922 C 223.934 258.053,221.303 262.406,221.815 261.914 C 222.038 261.699,223.166 260.029,224.321 258.203 C 225.476 256.377,227.702 252.861,229.268 250.391 C 230.834 247.920,233.971 242.822,236.240 239.063 C 238.509 235.303,241.108 231.067,242.016 229.650 C 242.924 228.233,243.954 226.519,244.305 225.842 C 245.620 223.298,244.550 224.770,241.581 229.590 M214.373 234.863 L 214.489 237.500 203.585 237.500 L 192.680 237.500 192.438 236.035 C 192.305 235.229,192.194 233.996,192.192 233.295 L 192.188 232.019 203.223 232.123 L 214.258 232.227 214.373 234.863 M215.928 246.973 C 216.152 248.101,216.307 249.052,216.273 249.086 C 216.239 249.121,211.377 249.202,205.469 249.266 L 194.727 249.383 194.260 248.031 C 194.004 247.288,193.784 246.284,193.772 245.801 L 193.750 244.922 204.636 244.922 L 215.521 244.922 215.928 246.973 M229.437 252.815 C 227.402 255.982,223.791 261.890,223.097 263.187 C 222.164 264.931,232.157 273.634,233.976 272.661 C 240.936 268.936,239.984 255.049,232.468 250.666 L 231.267 249.966 229.437 252.815 " stroke="none" fill="#eba647" fill-rule="evenodd"></path><path id="path1" d="M181.055 0.624 C 179.121 0.914,176.484 1.251,175.195 1.373 C 166.172 2.229,145.833 6.964,137.297 10.195 C 136.219 10.604,135.167 10.937,134.961 10.937 C 134.501 10.937,130.657 12.401,124.414 14.952 C 118.120 17.525,111.442 20.680,105.664 23.813 C 102.845 25.341,98.490 27.780,97.614 28.320 C 97.266 28.535,96.298 29.116,95.463 29.610 C 94.628 30.105,92.962 31.160,91.760 31.954 C 90.557 32.748,88.404 34.161,86.974 35.094 C 85.545 36.026,84.375 36.949,84.375 37.144 C 84.375 37.340,84.208 37.500,84.004 37.500 C 83.424 37.500,72.916 45.440,70.508 47.698 C 70.078 48.101,68.320 49.699,66.602 51.248 C 55.661 61.112,42.290 76.050,37.695 83.543 C 37.480 83.893,37.201 84.268,37.075 84.375 C 35.960 85.325,26.563 100.283,26.563 101.110 C 26.563 101.323,26.406 101.556,26.216 101.628 C 26.025 101.699,25.541 102.408,25.141 103.203 C 20.706 112.017,18.597 116.290,17.468 118.750 C 14.974 124.181,12.502 130.280,12.498 131.009 C 12.496 131.249,12.233 131.948,11.913 132.562 C 11.592 133.176,11.080 134.583,10.775 135.687 C 10.469 136.792,9.660 139.541,8.977 141.797 C 5.008 154.909,3.290 163.272,0.913 181.055 C -0.074 188.445,-0.298 209.636,0.558 214.660 C 0.897 216.651,1.271 219.660,1.389 221.347 C 1.705 225.874,3.930 238.686,5.500 245.020 C 5.912 246.685,6.607 249.497,7.043 251.270 C 7.981 255.083,9.172 259.134,10.229 262.109 C 10.648 263.291,11.302 265.137,11.682 266.211 C 12.062 267.285,12.596 268.779,12.869 269.531 C 13.141 270.283,13.612 271.602,13.914 272.461 C 14.216 273.320,14.725 274.490,15.044 275.060 C 15.364 275.631,15.625 276.286,15.625 276.518 C 15.625 277.206,21.825 290.179,24.514 295.117 C 26.746 299.216,28.583 302.422,29.327 303.516 C 29.692 304.053,30.655 305.547,31.466 306.836 C 41.149 322.214,51.926 334.897,67.969 349.792 C 69.986 351.665,79.531 359.243,82.992 361.719 C 84.643 362.900,86.491 364.263,87.097 364.746 C 87.703 365.229,88.393 365.625,88.631 365.625 C 88.868 365.625,89.062 365.781,89.062 365.971 C 89.062 366.161,89.634 366.606,90.332 366.960 C 91.030 367.313,92.920 368.468,94.531 369.527 C 96.143 370.585,97.900 371.695,98.438 371.994 C 98.975 372.292,100.469 373.129,101.758 373.854 C 107.393 377.021,111.168 378.947,117.578 381.925 C 118.760 382.474,120.166 383.142,120.703 383.409 C 121.240 383.677,122.910 384.371,124.414 384.952 C 125.918 385.532,127.677 386.243,128.323 386.531 C 129.839 387.208,144.232 391.865,148.047 392.913 C 157.466 395.500,168.603 397.667,179.883 399.107 C 187.811 400.119,214.219 400.119,221.875 399.108 C 231.314 397.861,240.559 396.150,246.769 394.500 C 248.322 394.088,249.816 393.753,250.089 393.756 C 250.363 393.759,251.816 393.391,253.320 392.938 C 258.896 391.260,267.420 388.551,268.555 388.097 C 269.805 387.597,271.499 386.974,274.023 386.086 C 274.883 385.784,276.053 385.275,276.623 384.956 C 277.193 384.636,277.854 384.375,278.092 384.375 C 278.488 384.375,287.433 380.237,289.258 379.210 C 289.688 378.968,291.885 377.814,294.141 376.644 C 296.396 375.474,298.945 374.103,299.805 373.596 C 300.664 373.088,302.114 372.283,303.027 371.806 C 303.940 371.329,304.688 370.797,304.688 370.625 C 304.688 370.453,304.877 370.313,305.109 370.313 C 305.533 370.313,316.505 363.098,318.408 361.567 C 318.972 361.113,319.930 360.391,320.537 359.961 C 329.030 353.948,345.113 338.948,352.084 330.536 C 355.779 326.077,355.675 326.202,356.744 324.975 C 357.941 323.603,361.625 318.567,364.870 313.867 C 366.354 311.719,367.732 309.764,367.932 309.523 C 368.132 309.283,368.849 308.140,369.526 306.984 C 370.203 305.828,371.261 304.092,371.877 303.125 C 372.494 302.158,373.244 300.928,373.543 300.391 C 377.386 293.504,380.846 286.597,383.816 279.883 C 384.386 278.594,385.089 277.012,385.377 276.367 C 385.666 275.723,386.356 273.965,386.910 272.461 C 387.465 270.957,388.176 269.149,388.491 268.444 C 388.805 267.738,389.063 266.927,389.063 266.640 C 389.063 266.354,389.387 265.261,389.784 264.212 C 392.461 257.130,395.674 244.484,397.613 233.398 C 399.757 221.142,399.766 221.024,399.911 202.061 C 400.053 183.558,400.080 184.137,398.440 170.857 C 398.252 169.330,397.822 167.020,397.486 165.723 C 397.150 164.425,396.875 162.883,396.875 162.295 C 396.875 161.708,396.536 159.887,396.122 158.250 C 395.708 156.613,395.178 154.395,394.945 153.320 C 394.154 149.672,391.459 139.847,391.095 139.284 C 390.947 139.055,390.625 138.164,390.380 137.305 C 390.135 136.445,389.708 135.127,389.431 134.375 C 389.154 133.623,388.510 131.865,387.999 130.469 C 386.426 126.162,385.538 123.956,383.126 118.359 C 381.712 115.078,376.379 104.504,374.905 102.058 C 374.098 100.719,373.438 99.525,373.438 99.405 C 373.438 99.285,373.113 98.711,372.717 98.129 C 372.321 97.547,371.560 96.367,371.026 95.508 C 365.578 86.740,358.370 76.555,355.444 73.491 C 355.108 73.139,353.705 71.445,352.327 69.727 C 348.737 65.248,334.549 51.166,329.492 47.062 C 327.129 45.143,325.107 43.461,325.000 43.323 C 324.582 42.787,319.471 39.062,319.152 39.063 C 318.967 39.063,318.757 38.892,318.685 38.684 C 318.550 38.292,317.016 37.214,310.124 32.667 C 303.957 28.599,303.543 28.340,300.391 26.587 C 298.779 25.691,297.197 24.797,296.875 24.600 C 295.937 24.028,281.992 17.141,280.273 16.401 C 278.632 15.695,275.613 14.452,272.656 13.266 C 270.287 12.316,262.511 9.635,259.375 8.688 C 251.249 6.233,245.543 4.686,244.637 4.693 C 244.257 4.696,242.539 4.357,240.820 3.941 C 237.117 3.044,230.298 1.922,221.680 0.794 C 214.025 -0.209,187.365 -0.320,181.055 0.624 M220.898 9.334 C 334.730 22.763,410.514 126.816,388.089 238.891 C 367.505 341.772,264.719 409.352,161.797 387.676 C 82.553 370.987,22.402 307.353,10.791 227.930 C 9.004 215.705,8.791 212.747,8.810 200.391 C 8.917 127.541,49.022 61.986,113.477 29.301 C 146.921 12.342,185.544 5.163,220.898 9.334 M200.000 85.530 C 199.678 85.723,198.418 86.849,197.202 88.033 C 195.453 89.734,194.470 90.345,192.514 90.946 L 190.039 91.707 190.223 95.561 C 190.539 102.179,190.488 103.320,189.879 103.320 C 189.576 103.320,189.121 102.705,188.868 101.953 C 187.660 98.359,184.375 100.025,184.375 104.232 C 184.375 108.266,187.805 110.085,188.918 106.641 C 190.002 103.289,190.898 105.466,190.969 111.621 C 191.019 115.917,190.714 116.475,189.583 114.160 C 187.995 110.910,185.156 112.350,185.156 116.406 C 185.156 120.292,188.646 122.195,189.632 118.848 C 189.977 117.673,190.738 117.180,191.140 117.871 C 191.710 118.852,191.834 127.734,191.277 127.734 C 190.954 127.734,190.367 127.075,189.974 126.270 C 189.184 124.655,187.837 124.186,186.595 125.095 C 185.171 126.136,185.264 130.983,186.735 132.353 C 188.345 133.854,185.498 134.715,177.481 135.151 C 163.569 135.909,158.152 136.506,152.843 137.865 C 137.964 141.674,130.237 150.973,131.659 163.357 C 132.046 166.731,132.732 168.868,133.347 168.619 C 133.590 168.521,135.662 167.696,137.950 166.787 L 142.111 165.135 141.336 162.938 C 136.583 149.468,144.606 143.394,168.074 142.698 L 176.187 142.458 171.162 151.209 C 168.399 156.023,160.809 169.541,154.295 181.250 C 130.560 223.918,126.497 230.438,118.792 238.215 C 110.044 247.046,99.574 249.913,90.582 245.939 C 89.880 245.629,85.679 256.184,86.084 257.239 C 86.812 259.137,96.448 259.764,102.004 258.276 C 114.984 254.800,127.390 241.876,140.227 218.457 L 143.064 213.281 159.813 213.281 L 176.563 213.281 176.571 219.629 C 176.603 245.162,179.999 254.121,191.136 258.050 C 193.183 258.772,193.171 258.853,191.582 255.086 C 186.841 243.845,186.127 227.067,189.739 211.797 C 190.639 207.993,190.810 206.441,190.760 202.539 C 190.459 178.980,190.559 145.891,190.953 139.260 C 191.265 134.011,191.287 131.406,191.021 131.317 C 190.428 131.119,190.544 129.688,191.153 129.688 C 191.536 129.688,191.744 130.589,191.913 132.978 C 192.136 136.136,192.219 136.368,193.977 138.740 C 196.127 141.640,197.245 143.914,197.257 145.410 L 197.266 146.484 205.078 146.484 L 212.891 146.484 212.899 145.605 C 212.913 144.232,214.252 141.608,216.295 138.955 C 218.159 136.533,218.164 136.516,218.301 133.085 C 218.432 129.823,218.482 129.650,219.278 129.763 C 219.789 129.836,220.164 130.210,220.237 130.721 C 220.811 134.751,224.982 132.638,224.994 128.310 C 225.006 124.405,221.433 122.789,220.256 126.166 C 219.325 128.836,218.615 127.593,218.887 123.768 C 219.026 121.802,219.141 119.604,219.141 118.885 C 219.141 117.123,220.126 117.157,220.873 118.945 C 222.251 122.242,225.391 120.322,225.391 116.185 C 225.391 112.420,222.503 110.923,221.094 113.956 C 220.220 115.837,219.531 115.581,219.534 113.379 C 219.540 108.295,220.016 105.078,220.761 105.078 C 221.259 105.078,221.484 105.363,221.484 105.994 C 221.484 108.009,224.219 108.932,225.616 107.389 C 227.436 105.378,226.253 100.000,223.991 100.000 C 223.075 100.000,221.484 101.644,221.484 102.592 C 221.484 102.885,221.203 103.125,220.858 103.125 C 220.306 103.125,220.248 102.451,220.370 97.420 L 220.508 91.715 218.021 90.947 C 215.930 90.301,215.143 89.779,213.073 87.667 C 210.333 84.873,209.412 84.603,207.025 85.891 C 205.693 86.610,205.633 86.610,204.215 85.891 C 202.667 85.106,200.955 84.960,200.000 85.530 M198.818 100.771 C 199.855 101.808,199.850 101.776,200.778 114.258 C 201.225 120.273,202.127 129.648,202.782 135.090 C 203.437 140.533,203.867 145.091,203.738 145.221 C 203.164 145.795,202.781 144.364,202.144 139.258 C 201.768 136.250,201.318 133.632,201.143 133.440 C 200.277 132.489,200.229 136.372,201.021 143.116 C 201.235 144.933,201.177 145.313,200.686 145.313 C 200.171 145.313,199.117 138.889,199.092 135.602 C 199.090 135.309,198.587 134.895,197.974 134.682 C 195.446 133.801,195.190 130.078,197.656 130.078 C 200.098 130.078,200.009 128.227,197.559 128.050 L 195.898 127.930 195.639 123.444 C 195.329 118.104,195.217 118.359,197.875 118.359 C 199.881 118.359,200.000 118.305,200.000 117.383 C 200.000 116.452,199.892 116.406,197.714 116.406 L 195.427 116.406 195.175 113.418 C 195.036 111.774,194.922 109.489,194.922 108.340 L 194.922 106.250 197.266 106.250 C 199.505 106.250,199.609 106.207,199.609 105.273 C 199.609 104.330,199.521 104.297,197.027 104.297 L 194.444 104.297 194.703 102.832 C 195.151 100.291,197.275 99.228,198.818 100.771 M215.234 100.781 C 215.718 101.265,216.016 102.083,216.016 102.930 L 216.016 104.297 213.672 104.297 C 210.120 104.297,210.032 106.143,213.574 106.328 L 215.820 106.445 215.701 110.352 C 215.512 116.574,215.591 116.406,212.860 116.406 C 210.653 116.406,210.547 116.451,210.547 117.383 C 210.547 118.317,210.650 118.359,212.909 118.359 L 215.270 118.359 215.033 122.363 C 214.683 128.288,214.750 128.125,212.688 128.125 C 211.081 128.125,210.938 128.205,210.938 129.102 C 210.938 129.999,211.081 130.078,212.695 130.078 C 214.430 130.078,214.453 130.095,214.453 131.393 C 214.453 132.895,213.174 134.766,212.145 134.766 C 211.549 134.766,211.393 135.431,210.977 139.746 C 210.528 144.402,210.147 145.824,209.517 145.194 C 209.373 145.050,209.483 142.578,209.761 139.700 C 210.217 134.968,210.204 134.380,209.625 133.553 C 209.210 132.960,208.982 132.841,208.977 133.214 C 208.973 133.530,208.710 135.723,208.394 138.086 C 208.078 140.449,207.818 142.960,207.816 143.665 C 207.813 144.818,206.965 145.767,206.423 145.225 C 206.321 145.124,206.606 142.245,207.055 138.829 C 207.504 135.412,208.022 131.475,208.206 130.078 C 208.550 127.458,210.377 107.840,210.659 103.744 C 210.892 100.349,213.266 98.813,215.234 100.781 M209.668 127.958 C 209.507 128.121,209.375 128.701,209.375 129.245 C 209.375 129.956,209.494 130.115,209.799 129.811 C 210.032 129.578,210.164 128.998,210.092 128.524 C 210.020 128.049,209.829 127.794,209.668 127.958 M200.000 129.102 C 200.000 129.639,200.176 130.078,200.391 130.078 C 200.605 130.078,200.781 129.639,200.781 129.102 C 200.781 128.564,200.605 128.125,200.391 128.125 C 200.176 128.125,200.000 128.564,200.000 129.102 M200.000 154.074 C 200.000 159.774,200.046 160.156,200.737 160.156 C 201.658 160.156,201.758 159.472,201.758 153.125 C 201.758 148.359,201.737 148.239,200.879 148.117 L 200.000 147.993 200.000 154.074 M203.125 154.073 C 203.125 159.922,203.155 160.156,203.916 160.156 C 205.056 160.156,204.950 148.340,203.809 148.121 C 203.181 148.000,203.125 148.490,203.125 154.073 M205.859 154.102 C 205.859 159.896,205.893 160.156,206.641 160.156 C 207.388 160.156,207.422 159.896,207.422 154.102 C 207.422 148.307,207.388 148.047,206.641 148.047 C 205.893 148.047,205.859 148.307,205.859 154.102 M208.594 154.102 C 208.594 159.896,208.627 160.156,209.375 160.156 C 210.123 160.156,210.156 159.896,210.156 154.102 C 210.156 148.307,210.123 148.047,209.375 148.047 C 208.627 148.047,208.594 148.307,208.594 154.102 M211.328 154.102 C 211.328 159.782,211.374 160.156,212.068 160.156 C 213.144 160.156,213.202 159.741,212.982 153.613 C 212.798 148.519,212.720 148.047,212.055 148.047 C 211.378 148.047,211.328 148.459,211.328 154.102 M197.266 154.297 C 197.266 159.896,197.300 160.156,198.047 160.156 C 198.793 160.156,198.828 159.896,198.828 154.297 C 198.828 148.698,198.793 148.438,198.047 148.438 C 197.300 148.438,197.266 148.698,197.266 154.297 M260.352 149.670 C 242.375 152.410,228.670 159.144,217.238 170.852 C 214.138 174.026,213.435 174.565,212.648 174.367 C 211.786 174.151,211.719 174.246,211.719 175.691 C 211.719 176.599,211.474 177.451,211.133 177.734 C 210.626 178.155,210.547 177.976,210.547 176.415 C 210.547 174.749,210.471 174.609,209.570 174.609 C 208.602 174.609,208.594 174.639,208.594 178.077 C 208.594 180.683,208.448 181.666,208.008 182.031 C 207.493 182.458,207.422 182.019,207.422 178.433 C 207.422 174.547,207.383 174.352,206.615 174.409 C 205.852 174.465,205.804 174.723,205.736 179.226 L 205.664 183.985 210.059 183.984 L 214.453 183.984 214.453 184.961 L 214.453 185.938 210.006 185.938 C 205.888 185.938,205.545 185.995,205.356 186.719 C 205.243 187.148,204.959 187.500,204.724 187.500 C 204.489 187.500,204.297 187.148,204.297 186.719 C 204.297 186.219,204.036 185.938,203.573 185.938 C 202.954 185.938,202.813 186.365,202.600 188.887 C 202.181 193.844,201.391 194.349,201.255 189.746 C 201.145 185.989,201.131 185.938,200.181 185.938 L 199.219 185.938 199.219 190.409 L 199.219 194.880 207.031 194.648 L 214.844 194.415 214.844 195.450 L 214.844 196.484 207.031 196.484 L 199.219 196.484 199.205 197.363 C 199.172 199.425,198.076 200.361,198.061 198.340 C 198.049 196.793,197.925 196.484,197.317 196.484 C 196.448 196.484,196.105 198.053,196.098 202.051 L 196.094 204.688 205.859 204.688 C 215.223 204.688,215.625 204.718,215.625 205.436 C 215.625 206.521,215.542 206.528,205.190 206.354 L 195.732 206.196 195.521 207.102 C 195.206 208.455,194.141 213.697,194.141 213.893 C 194.141 213.986,198.799 214.063,204.492 214.063 L 214.844 214.063 214.844 213.017 C 214.844 212.441,215.378 209.360,216.032 206.170 C 223.970 167.419,255.751 145.754,284.799 159.292 C 294.773 163.940,298.368 170.181,298.427 182.952 C 298.436 184.875,298.536 185.202,299.055 185.003 C 299.395 184.872,300.266 184.766,300.991 184.766 C 302.512 184.766,302.251 185.686,303.540 175.781 C 304.001 172.236,304.884 166.183,305.501 162.329 C 306.119 158.476,306.579 155.277,306.523 155.221 C 306.247 154.945,294.643 151.872,291.265 151.180 C 282.157 149.313,267.415 148.594,260.352 149.670 M176.259 179.724 L 176.069 206.128 161.995 206.399 C 154.254 206.548,147.787 206.532,147.624 206.363 C 147.461 206.193,152.411 196.738,158.625 185.352 C 171.418 161.908,176.288 153.099,176.383 153.230 C 176.419 153.280,176.363 165.202,176.259 179.724 M196.898 167.383 C 196.845 172.318,196.889 172.656,197.582 172.656 C 198.228 172.656,198.353 172.248,198.573 169.434 C 199.059 163.188,198.958 162.109,197.891 162.109 L 196.954 162.109 196.898 167.383 M199.667 167.384 L 199.528 172.656 200.524 172.656 L 201.520 172.656 201.639 167.382 L 201.758 162.108 200.781 162.110 L 199.805 162.112 199.667 167.384 M202.824 167.383 L 202.760 172.656 203.724 172.656 L 204.688 172.656 204.688 167.383 C 204.688 162.139,204.682 162.109,203.788 162.109 C 202.897 162.109,202.889 162.158,202.824 167.383 M205.859 167.383 C 205.859 172.396,205.898 172.656,206.641 172.656 C 207.383 172.656,207.422 172.396,207.422 167.383 C 207.422 162.370,207.383 162.109,206.641 162.109 C 205.898 162.109,205.859 162.370,205.859 167.383 M208.594 167.383 L 208.594 172.656 209.570 172.656 C 210.533 172.656,210.547 172.612,210.543 169.434 C 210.538 164.254,210.180 162.109,209.321 162.109 C 208.648 162.109,208.594 162.501,208.594 167.383 M211.719 167.383 C 211.719 172.396,211.757 172.656,212.500 172.656 C 213.243 172.656,213.281 172.396,213.281 167.383 C 213.281 162.370,213.243 162.109,212.500 162.109 C 211.757 162.109,211.719 162.370,211.719 167.383 M196.872 177.087 C 196.870 178.625,196.757 180.806,196.622 181.934 C 196.379 183.952,196.392 183.984,197.407 183.984 L 198.438 183.984 198.438 179.342 C 198.438 175.029,198.382 174.686,197.656 174.496 C 196.929 174.306,196.875 174.485,196.872 177.087 M199.609 179.199 L 199.609 183.984 200.586 183.984 L 201.563 183.984 201.563 179.199 L 201.563 174.414 200.586 174.414 L 199.609 174.414 199.609 179.199 M202.734 179.074 C 202.734 183.724,202.776 183.984,203.516 183.984 C 204.209 183.984,204.301 183.710,204.337 181.543 C 204.360 180.200,204.404 178.047,204.435 176.758 C 204.488 174.604,204.421 174.404,203.613 174.289 C 202.742 174.165,202.734 174.206,202.734 179.074 M261.719 179.741 C 261.182 179.958,259.827 180.023,258.709 179.885 L 256.676 179.636 255.286 182.396 C 253.922 185.106,252.799 186.120,253.278 184.208 C 253.866 181.865,250.955 181.679,249.994 183.998 C 249.052 186.273,250.514 188.076,252.179 186.693 C 253.184 185.859,253.119 186.486,251.947 188.949 C 250.668 191.633,250.000 192.310,250.000 190.921 C 250.000 188.921,248.192 188.454,246.884 190.116 C 245.249 192.195,246.747 194.924,248.654 193.342 C 249.612 192.547,249.340 193.779,248.018 196.220 C 246.779 198.507,245.952 199.100,246.151 197.559 C 246.411 195.549,244.717 195.043,243.388 196.732 C 241.805 198.745,242.728 201.217,244.621 200.035 C 245.771 199.317,245.909 199.805,245.081 201.651 C 244.548 202.838,244.336 204.202,244.336 206.440 C 244.336 208.162,244.201 209.838,244.036 210.164 C 243.563 211.100,251.721 215.789,252.399 214.972 C 252.665 214.652,253.894 213.879,255.130 213.255 C 256.718 212.454,257.755 211.575,258.669 210.260 L 259.961 208.398 260.081 209.844 C 260.255 211.939,261.487 212.245,262.988 210.565 C 264.867 208.463,263.557 205.734,261.492 207.448 C 260.340 208.404,260.580 207.492,262.099 205.141 C 263.772 202.553,264.448 202.132,264.331 203.754 C 264.173 205.942,266.092 205.975,267.707 203.812 C 269.140 201.893,267.356 199.597,265.710 201.243 C 264.574 202.379,264.950 201.047,266.433 198.682 C 268.225 195.824,268.955 195.441,268.949 197.363 C 268.944 199.115,270.604 199.379,271.830 197.820 C 273.331 195.912,272.198 192.880,270.586 194.492 C 270.045 195.033,269.531 195.046,269.531 194.519 C 269.531 194.297,270.315 192.948,271.272 191.521 L 273.014 188.925 271.663 187.430 C 270.920 186.608,270.299 185.628,270.283 185.253 C 270.170 182.574,269.511 181.641,267.736 181.641 C 266.676 181.641,266.311 181.417,265.820 180.469 C 265.163 179.197,263.706 178.938,261.719 179.741 M258.366 185.784 C 259.054 186.048,259.242 188.467,258.605 188.860 C 258.181 189.122,256.051 188.126,255.651 187.478 C 255.042 186.493,257.012 185.264,258.366 185.784 M196.484 190.430 C 196.484 194.661,196.530 194.922,197.266 194.922 C 198.002 194.922,198.047 194.661,198.047 190.430 C 198.047 186.198,198.002 185.938,197.266 185.938 C 196.530 185.938,196.484 186.198,196.484 190.430 M256.660 189.268 C 258.086 190.005,258.096 189.848,256.426 192.834 C 254.863 195.629,255.040 195.515,253.496 194.717 C 252.060 193.974,252.064 193.798,253.570 190.973 C 254.916 188.447,254.992 188.405,256.660 189.268 M267.118 191.918 C 267.328 193.751,266.598 194.228,265.014 193.293 C 263.469 192.381,263.443 192.306,264.335 191.321 C 265.352 190.198,266.960 190.543,267.118 191.918 M264.551 194.118 C 265.951 194.820,265.349 196.676,262.658 199.947 C 262.594 200.025,261.909 199.698,261.136 199.221 C 259.738 198.357,259.735 198.348,260.401 197.321 C 262.564 193.985,263.034 193.346,263.244 193.457 C 263.372 193.525,263.960 193.822,264.551 194.118 M254.287 196.633 C 254.293 196.822,253.658 198.160,252.876 199.607 L 251.456 202.237 250.158 201.411 C 248.409 200.298,248.446 200.063,251.038 195.810 C 251.578 194.925,254.259 195.604,254.287 196.633 M260.343 200.438 C 261.740 201.261,261.744 201.271,261.081 202.293 C 258.158 206.801,258.509 206.509,257.031 205.664 C 255.797 204.959,255.469 204.945,255.469 205.601 C 255.469 205.889,255.908 206.325,256.445 206.570 C 258.022 207.288,256.988 209.654,255.247 209.312 C 253.147 208.899,253.528 207.122,256.671 202.654 C 259.164 199.111,258.636 199.430,260.343 200.438 M249.575 202.246 C 250.997 203.055,251.036 203.260,249.976 204.321 C 248.561 205.736,246.903 204.624,247.411 202.600 C 247.717 201.378,247.976 201.336,249.575 202.246 M236.914 221.701 C 233.477 227.185,229.206 233.938,227.423 236.707 L 224.182 241.741 221.181 240.316 C 219.115 239.335,217.631 238.889,216.415 238.886 C 215.443 238.884,209.775 238.922,203.818 238.972 L 192.988 239.063 193.200 240.332 C 193.316 241.030,193.491 241.997,193.588 242.480 L 193.765 243.359 204.335 243.359 L 214.906 243.359 214.651 242.197 C 214.166 239.990,216.373 240.092,220.801 242.482 C 223.077 243.711,223.140 243.182,220.136 248.016 C 217.069 252.952,216.964 253.065,216.644 251.786 L 216.391 250.781 205.852 250.781 C 200.055 250.781,195.313 250.931,195.313 251.114 C 195.313 251.296,195.505 251.999,195.741 252.676 L 196.170 253.906 206.834 253.906 L 217.498 253.906 219.820 250.293 C 221.097 248.306,223.724 244.219,225.659 241.211 C 232.649 230.341,243.750 212.482,243.750 212.105 C 243.750 211.006,242.645 212.557,236.914 221.701 M239.842 220.426 C 234.858 228.596,223.779 246.214,220.080 251.852 C 218.919 253.622,217.969 255.248,217.969 255.465 C 217.969 255.721,214.266 255.859,207.438 255.859 L 196.907 255.859 197.612 257.520 L 198.317 259.180 208.729 259.284 C 217.710 259.373,219.141 259.308,219.141 258.809 C 219.141 258.491,220.844 255.544,222.925 252.260 C 225.007 248.976,228.406 243.564,230.478 240.234 C 232.551 236.904,236.441 230.664,239.123 226.367 C 245.573 216.034,246.898 213.732,246.528 213.503 C 246.358 213.398,243.674 217.480,240.564 222.574 C 230.759 238.634,218.957 257.398,218.652 257.410 C 217.850 257.443,218.630 255.707,221.352 251.408 C 229.089 239.187,239.798 222.079,241.917 218.555 C 243.208 216.406,244.510 214.269,244.810 213.806 C 245.110 213.342,245.198 212.866,245.007 212.748 C 244.815 212.629,242.491 216.085,239.842 220.426 M246.990 215.332 C 246.531 216.336,236.587 232.470,224.669 251.544 C 222.058 255.723,219.922 259.293,219.922 259.477 C 219.922 260.140,220.649 259.340,221.703 257.519 C 222.293 256.499,224.304 253.291,226.170 250.391 C 233.368 239.206,248.047 215.274,248.047 214.723 C 248.047 214.118,247.365 214.511,246.990 215.332 M247.656 217.611 C 245.701 220.980,230.082 246.238,225.092 254.102 L 220.877 260.742 210.048 260.846 C 204.092 260.903,199.219 261.049,199.219 261.171 C 199.219 262.624,204.543 269.727,208.324 273.317 C 221.357 285.692,240.551 287.643,267.188 279.297 C 275.838 276.587,282.533 274.621,286.035 273.762 C 287.915 273.301,289.453 272.782,289.453 272.610 C 289.453 268.643,292.732 250.866,294.745 243.921 C 297.037 236.010,300.019 233.098,306.379 232.560 L 309.317 232.312 309.581 230.389 C 309.928 227.867,310.203 227.962,304.007 228.467 C 296.383 229.087,277.593 229.005,270.703 228.320 C 267.588 228.011,264.825 227.752,264.564 227.746 C 264.179 227.737,263.369 231.320,263.602 232.003 C 263.633 232.094,264.321 232.214,265.130 232.268 C 280.325 233.292,281.301 235.453,276.144 256.648 C 273.421 267.838,271.985 269.936,264.656 273.434 C 258.267 276.483,245.577 277.476,238.999 275.441 L 236.005 274.516 237.641 272.507 C 243.343 265.506,242.567 257.244,235.563 250.391 L 232.569 247.461 237.047 240.039 C 239.511 235.957,243.696 229.061,246.349 224.714 C 249.002 220.367,251.172 216.632,251.172 216.413 C 251.172 215.535,250.525 216.135,249.379 218.074 C 248.716 219.198,246.710 222.490,244.923 225.391 C 243.135 228.291,239.437 234.355,236.704 238.867 C 233.971 243.379,230.663 248.740,229.354 250.781 C 228.044 252.822,225.882 256.250,224.549 258.398 C 223.217 260.547,222.081 262.366,222.026 262.441 C 221.972 262.517,221.750 262.469,221.534 262.335 C 221.181 262.117,223.486 258.057,227.646 251.569 C 232.765 243.584,249.609 215.917,249.609 215.493 C 249.609 214.719,248.869 215.522,247.656 217.611 M193.407 218.961 C 193.166 220.581,192.969 222.076,192.969 222.282 C 192.969 222.511,197.044 222.656,203.516 222.656 L 214.063 222.656 214.063 221.148 C 214.063 220.319,214.174 218.825,214.311 217.828 L 214.559 216.016 204.202 216.016 L 193.845 216.016 193.407 218.961 M192.871 224.447 C 192.710 224.608,192.578 225.914,192.578 227.348 L 192.578 229.957 197.913 230.213 C 200.848 230.354,205.590 230.469,208.453 230.469 C 214.404 230.469,214.094 230.690,213.945 226.563 L 213.867 224.414 203.515 224.284 C 197.821 224.213,193.031 224.286,192.871 224.447 M192.578 234.119 C 192.578 237.569,191.685 237.318,203.538 237.195 L 214.099 237.085 213.983 234.675 L 213.867 232.266 203.223 232.120 L 192.578 231.974 192.578 234.119 M194.300 246.935 C 194.443 247.828,194.652 248.707,194.764 248.889 C 194.876 249.070,199.718 249.219,205.523 249.219 L 216.078 249.219 215.822 247.949 C 215.240 245.057,216.325 245.313,204.611 245.313 L 194.041 245.313 194.300 246.935 M233.916 251.727 C 239.842 257.388,240.946 263.693,237.036 269.548 C 233.941 274.184,232.095 273.858,225.676 267.544 L 222.250 264.174 224.309 260.700 C 228.445 253.719,231.062 249.613,231.377 249.611 C 231.554 249.610,232.696 250.562,233.916 251.727 " stroke="none" fill="#080605" fill-rule="evenodd"></path><path id="path2" d="M198.535 8.493 C 199.985 8.568,202.358 8.568,203.809 8.493 C 205.259 8.418,204.072 8.356,201.172 8.356 C 198.271 8.356,197.085 8.418,198.535 8.493 M67.364 62.207 L 65.820 63.867 67.480 62.323 C 69.024 60.887,69.320 60.547,69.025 60.547 C 68.961 60.547,68.214 61.294,67.364 62.207 M220.657 92.664 C 220.837 93.748,220.892 93.803,221.015 93.021 C 221.094 92.513,220.999 91.936,220.802 91.740 C 220.585 91.523,220.528 91.887,220.657 92.664 M210.553 104.590 C 210.557 105.372,210.654 105.514,210.907 105.114 C 211.099 104.811,211.165 104.327,211.055 104.039 C 210.738 103.213,210.546 103.423,210.553 104.590 M195.996 106.526 C 196.479 106.619,197.271 106.619,197.754 106.526 C 198.237 106.433,197.842 106.356,196.875 106.356 C 195.908 106.356,195.513 106.433,195.996 106.526 M212.409 106.533 C 213.111 106.620,214.166 106.618,214.753 106.529 C 215.340 106.440,214.766 106.369,213.477 106.371 C 212.188 106.373,211.707 106.446,212.409 106.533 M191.360 126.477 C 191.231 127.253,191.288 127.618,191.505 127.401 C 191.702 127.204,191.798 126.627,191.718 126.119 C 191.595 125.337,191.540 125.392,191.360 126.477 M185.247 128.516 C 185.247 129.268,185.327 129.575,185.426 129.199 C 185.524 128.823,185.524 128.208,185.426 127.832 C 185.327 127.456,185.247 127.764,185.247 128.516 M190.716 149.219 C 190.716 149.971,190.796 150.278,190.894 149.902 C 190.993 149.526,190.993 148.911,190.894 148.535 C 190.796 148.159,190.716 148.467,190.716 149.219 M208.328 150.391 C 208.328 151.787,208.399 152.358,208.486 151.660 C 208.572 150.962,208.572 149.819,208.486 149.121 C 208.399 148.423,208.328 148.994,208.328 150.391 M199.750 151.953 C 199.750 153.994,199.816 154.829,199.896 153.809 C 199.977 152.788,199.977 151.118,199.896 150.098 C 199.816 149.077,199.750 149.912,199.750 151.953 M207.553 151.172 C 207.553 152.783,207.622 153.442,207.706 152.637 C 207.791 151.831,207.791 150.513,207.706 149.707 C 207.622 148.901,207.553 149.561,207.553 151.172 M198.953 152.734 C 198.953 154.131,199.024 154.702,199.111 154.004 C 199.197 153.306,199.197 152.163,199.111 151.465 C 199.024 150.767,198.953 151.338,198.953 152.734 M207.547 157.813 C 207.547 159.209,207.618 159.780,207.704 159.082 C 207.791 158.384,207.791 157.241,207.704 156.543 C 207.618 155.845,207.547 156.416,207.547 157.813 M207.539 163.672 C 207.539 164.854,207.612 165.337,207.702 164.746 C 207.791 164.155,207.791 163.188,207.702 162.598 C 207.612 162.007,207.539 162.490,207.539 163.672 M175.893 172.461 C 175.896 173.535,175.972 173.928,176.062 173.334 C 176.151 172.741,176.149 171.862,176.056 171.381 C 175.964 170.901,175.890 171.387,175.893 172.461 M198.536 175.977 C 198.540 176.836,198.620 177.142,198.714 176.656 C 198.807 176.170,198.804 175.467,198.706 175.093 C 198.608 174.720,198.532 175.117,198.536 175.977 M199.325 178.906 C 199.325 179.873,199.401 180.269,199.494 179.785 C 199.588 179.302,199.588 178.511,199.494 178.027 C 199.401 177.544,199.325 177.939,199.325 178.906 M202.442 182.617 C 202.447 183.477,202.527 183.782,202.620 183.296 C 202.713 182.810,202.710 182.107,202.612 181.734 C 202.514 181.360,202.438 181.758,202.442 182.617 M198.159 191.992 C 198.162 193.066,198.237 193.459,198.327 192.866 C 198.417 192.272,198.415 191.393,198.322 190.913 C 198.229 190.432,198.156 190.918,198.159 191.992 M201.263 191.797 C 201.263 192.549,201.343 192.856,201.441 192.480 C 201.539 192.104,201.539 191.489,201.441 191.113 C 201.343 190.737,201.263 191.045,201.263 191.797 M196.200 193.359 C 196.200 194.326,196.276 194.722,196.369 194.238 C 196.463 193.755,196.463 192.964,196.369 192.480 C 196.276 191.997,196.200 192.393,196.200 193.359 M175.902 195.508 C 175.904 196.797,175.977 197.277,176.064 196.575 C 176.151 195.873,176.149 194.818,176.060 194.231 C 175.971 193.644,175.900 194.219,175.902 195.508 M205.940 196.383 C 207.381 196.458,209.842 196.458,211.409 196.384 C 212.976 196.310,211.797 196.248,208.789 196.248 C 205.781 196.247,204.499 196.308,205.940 196.383 M8.740 200.586 C 8.741 202.949,8.805 203.866,8.883 202.622 C 8.961 201.379,8.960 199.446,8.881 198.326 C 8.803 197.205,8.739 198.223,8.740 200.586 M391.938 200.391 C 391.938 202.432,392.004 203.267,392.084 202.246 C 392.164 201.226,392.164 199.556,392.084 198.535 C 392.004 197.515,391.938 198.350,391.938 200.391 M211.628 214.346 C 212.330 214.433,213.385 214.431,213.972 214.342 C 214.559 214.252,213.984 214.181,212.695 214.184 C 211.406 214.186,210.926 214.259,211.628 214.346 M176.293 217.383 C 176.295 218.672,176.368 219.152,176.455 218.450 C 176.542 217.748,176.540 216.693,176.451 216.106 C 176.362 215.519,176.291 216.094,176.293 217.383 M199.340 245.214 C 202.307 245.280,207.053 245.280,209.887 245.214 C 212.720 245.147,210.293 245.093,204.492 245.093 C 198.691 245.093,196.373 245.148,199.340 245.214 M235.156 249.732 C 235.156 249.799,235.728 250.370,236.426 251.001 L 237.695 252.148 236.548 250.879 C 235.479 249.696,235.156 249.430,235.156 249.732 M211.035 250.675 C 211.841 250.759,213.159 250.759,213.965 250.675 C 214.771 250.591,214.111 250.522,212.500 250.522 C 210.889 250.522,210.229 250.591,211.035 250.675 M215.430 253.906 L 213.086 254.166 215.309 254.231 C 216.532 254.267,217.641 254.121,217.773 253.906 C 217.906 253.691,217.961 253.545,217.894 253.581 C 217.828 253.617,216.719 253.764,215.430 253.906 M198.340 254.195 C 199.683 254.272,201.880 254.272,203.223 254.195 C 204.565 254.119,203.467 254.057,200.781 254.057 C 198.096 254.057,196.997 254.119,198.340 254.195 M213.956 259.657 C 214.650 259.743,215.880 259.745,216.691 259.660 C 217.501 259.576,216.934 259.505,215.430 259.503 C 213.926 259.501,213.263 259.571,213.956 259.657 M224.609 266.528 C 224.609 266.596,225.181 267.167,225.879 267.798 L 227.148 268.945 226.001 267.676 C 224.932 266.492,224.609 266.227,224.609 266.528 M64.063 334.570 C 65.447 335.967,66.667 337.109,66.774 337.109 C 66.882 337.109,65.837 335.967,64.453 334.570 C 63.069 333.174,61.849 332.031,61.741 332.031 C 61.634 332.031,62.678 333.174,64.063 334.570 M196.387 391.682 C 196.870 391.775,197.661 391.775,198.145 391.682 C 198.628 391.589,198.232 391.513,197.266 391.513 C 196.299 391.513,195.903 391.589,196.387 391.682 M204.009 391.687 C 204.603 391.776,205.482 391.774,205.962 391.681 C 206.443 391.589,205.957 391.515,204.883 391.518 C 203.809 391.521,203.416 391.597,204.009 391.687 " stroke="none" fill="#8e6333" fill-rule="evenodd"></path><path id="path3" d="M194.048 8.479 C 194.533 8.573,195.237 8.569,195.610 8.472 C 195.983 8.374,195.586 8.297,194.727 8.302 C 193.867 8.306,193.562 8.386,194.048 8.479 M206.934 8.479 C 207.417 8.572,208.208 8.572,208.691 8.479 C 209.175 8.386,208.779 8.310,207.813 8.310 C 206.846 8.310,206.450 8.386,206.934 8.479 M334.570 63.281 C 336.063 64.785,337.372 66.016,337.479 66.016 C 337.586 66.016,336.453 64.785,334.961 63.281 C 333.469 61.777,332.160 60.547,332.052 60.547 C 331.945 60.547,333.078 61.777,334.570 63.281 M339.437 68.066 C 340.395 69.087,341.230 69.922,341.292 69.922 C 341.586 69.922,341.275 69.571,339.551 67.952 L 337.695 66.211 339.437 68.066 M59.943 69.629 L 58.398 71.289 60.059 69.745 C 60.972 68.896,61.719 68.149,61.719 68.085 C 61.719 67.789,61.379 68.085,59.943 69.629 M199.726 104.297 C 199.726 105.479,199.800 105.962,199.889 105.371 C 199.979 104.780,199.979 103.813,199.889 103.223 C 199.800 102.632,199.726 103.115,199.726 104.297 M215.716 107.813 C 215.716 108.564,215.796 108.872,215.894 108.496 C 215.993 108.120,215.993 107.505,215.894 107.129 C 215.796 106.753,215.716 107.061,215.716 107.813 M190.731 108.984 C 190.731 109.951,190.808 110.347,190.901 109.863 C 190.994 109.380,190.994 108.589,190.901 108.105 C 190.808 107.622,190.731 108.018,190.731 108.984 M219.622 110.547 C 219.622 111.299,219.702 111.606,219.801 111.230 C 219.899 110.854,219.899 110.239,219.801 109.863 C 219.702 109.487,219.622 109.795,219.622 110.547 M195.013 111.328 C 195.013 112.080,195.093 112.388,195.191 112.012 C 195.289 111.636,195.289 111.021,195.191 110.645 C 195.093 110.269,195.013 110.576,195.013 111.328 M184.864 116.211 C 184.868 117.070,184.948 117.376,185.042 116.890 C 185.135 116.404,185.132 115.701,185.034 115.327 C 184.936 114.954,184.860 115.352,184.864 116.211 M225.489 116.211 C 225.493 117.070,225.573 117.376,225.667 116.890 C 225.760 116.404,225.757 115.701,225.659 115.327 C 225.561 114.954,225.485 115.352,225.489 116.211 M196.394 116.299 C 197.096 116.386,198.150 116.384,198.737 116.295 C 199.324 116.206,198.750 116.134,197.461 116.137 C 196.172 116.139,195.692 116.212,196.394 116.299 M211.621 116.298 C 212.319 116.385,213.462 116.385,214.160 116.298 C 214.858 116.212,214.287 116.141,212.891 116.141 C 211.494 116.141,210.923 116.212,211.621 116.298 M195.465 118.917 C 195.347 119.224,195.329 119.883,195.424 120.382 C 195.558 121.083,195.609 121.006,195.650 120.039 C 195.703 118.801,195.725 118.788,197.949 118.648 L 200.195 118.507 197.937 118.433 C 196.289 118.379,195.621 118.510,195.465 118.917 M214.934 120.313 C 214.934 121.064,215.015 121.372,215.113 120.996 C 215.211 120.620,215.211 120.005,215.113 119.629 C 215.015 119.253,214.934 119.561,214.934 120.313 M195.827 127.148 C 195.881 127.679,196.219 127.950,196.879 127.994 C 197.694 128.047,197.713 128.028,196.997 127.872 C 196.526 127.770,196.053 127.390,195.945 127.027 C 195.803 126.552,195.770 126.586,195.827 127.148 M210.793 128.043 C 210.688 128.213,211.249 128.291,212.039 128.216 C 214.455 127.987,214.740 127.827,212.816 127.780 C 211.808 127.755,210.898 127.873,210.793 128.043 M179.594 135.042 C 180.080 135.135,180.783 135.132,181.157 135.034 C 181.530 134.936,181.133 134.860,180.273 134.864 C 179.414 134.868,179.108 134.948,179.594 135.042 M171.973 135.426 C 172.349 135.524,172.964 135.524,173.340 135.426 C 173.716 135.327,173.408 135.247,172.656 135.247 C 171.904 135.247,171.597 135.327,171.973 135.426 M164.941 142.858 C 165.532 142.947,166.499 142.947,167.090 142.858 C 167.681 142.768,167.197 142.695,166.016 142.695 C 164.834 142.695,164.351 142.768,164.941 142.858 M190.753 145.508 C 190.755 147.012,190.826 147.579,190.910 146.769 C 190.995 145.958,190.993 144.728,190.907 144.034 C 190.821 143.341,190.751 144.004,190.753 145.508 M207.453 144.043 C 207.416 145.083,206.775 145.217,206.519 144.238 C 206.385 143.724,206.329 143.772,206.295 144.434 C 206.267 144.982,206.475 145.313,206.848 145.313 C 207.528 145.313,207.985 144.413,207.685 143.665 C 207.574 143.390,207.470 143.560,207.453 144.043 M137.088 145.996 L 135.742 147.461 137.207 146.115 C 138.013 145.374,138.672 144.715,138.672 144.650 C 138.672 144.352,138.341 144.633,137.088 145.996 M212.936 145.378 C 212.911 145.951,212.671 146.508,212.402 146.616 C 212.020 146.771,212.023 146.820,212.415 146.844 C 213.034 146.882,213.408 145.984,213.164 145.042 C 213.041 144.566,212.966 144.675,212.936 145.378 M200.488 146.775 C 202.368 146.847,205.444 146.847,207.324 146.775 C 209.204 146.704,207.666 146.645,203.906 146.645 C 200.146 146.645,198.608 146.704,200.488 146.775 M197.926 148.300 C 198.453 148.414,198.846 148.853,198.950 149.443 C 199.097 150.276,199.112 150.260,199.071 149.321 C 199.033 148.462,198.824 148.229,198.047 148.178 C 197.233 148.125,197.213 148.145,197.926 148.300 M202.892 154.102 C 202.893 157.539,202.953 158.893,203.025 157.110 C 203.098 155.328,203.097 152.515,203.024 150.860 C 202.951 149.206,202.892 150.664,202.892 154.102 M205.627 154.102 C 205.627 157.539,205.687 158.893,205.760 157.110 C 205.832 155.328,205.832 152.515,205.759 150.860 C 205.686 149.206,205.626 150.664,205.627 154.102 M213.037 152.539 C 213.038 154.902,213.102 155.819,213.180 154.576 C 213.257 153.332,213.257 151.399,213.178 150.279 C 213.099 149.159,213.036 150.176,213.037 152.539 M210.312 154.492 C 210.313 157.715,210.374 158.981,210.447 157.306 C 210.520 155.632,210.520 152.995,210.446 151.447 C 210.372 149.899,210.312 151.270,210.312 154.492 M268.049 149.117 C 269.490 149.192,271.951 149.193,273.518 149.119 C 275.085 149.044,273.906 148.983,270.898 148.982 C 267.891 148.982,266.609 149.042,268.049 149.117 M197.009 157.227 C 197.010 158.945,197.079 159.600,197.162 158.681 C 197.244 157.762,197.243 156.356,197.159 155.556 C 197.075 154.756,197.007 155.508,197.009 157.227 M201.661 156.445 C 201.665 157.305,201.745 157.610,201.839 157.124 C 201.932 156.638,201.929 155.935,201.831 155.562 C 201.733 155.188,201.657 155.586,201.661 156.445 M199.734 157.813 C 199.734 159.209,199.805 159.780,199.892 159.082 C 199.979 158.384,199.979 157.241,199.892 156.543 C 199.805 155.845,199.734 156.416,199.734 157.813 M190.410 171.484 C 190.410 178.896,190.463 181.929,190.527 178.223 C 190.591 174.517,190.591 168.452,190.527 164.746 C 190.463 161.040,190.410 164.072,190.410 171.484 M176.289 161.328 C 176.289 162.510,176.362 162.993,176.452 162.402 C 176.541 161.812,176.541 160.845,176.452 160.254 C 176.362 159.663,176.289 160.146,176.289 161.328 M200.098 161.988 C 200.474 162.086,201.089 162.086,201.465 161.988 C 201.841 161.890,201.533 161.809,200.781 161.809 C 200.029 161.809,199.722 161.890,200.098 161.988 M205.554 167.285 L 205.640 172.852 205.761 167.506 C 205.877 162.338,205.910 162.155,206.749 161.993 C 207.480 161.852,207.448 161.817,206.543 161.772 L 205.469 161.719 205.554 167.285 M209.255 161.972 C 209.873 162.106,210.155 162.506,210.267 163.403 C 210.415 164.597,210.420 164.592,210.386 163.281 C 210.357 162.111,210.211 161.905,209.375 161.850 C 208.558 161.797,208.538 161.816,209.255 161.972 M211.499 162.228 C 211.392 162.508,211.359 165.012,211.426 167.794 L 211.549 172.852 211.634 167.508 C 211.716 162.307,211.742 162.159,212.598 161.994 L 213.477 161.825 212.585 161.772 C 212.095 161.743,211.606 161.948,211.499 162.228 M199.708 163.867 C 199.712 164.727,199.792 165.032,199.886 164.546 C 199.979 164.060,199.976 163.357,199.878 162.984 C 199.780 162.610,199.704 163.008,199.708 163.867 M201.709 166.602 C 201.710 168.965,201.774 169.881,201.852 168.638 C 201.929 167.395,201.929 165.461,201.850 164.341 C 201.771 163.221,201.708 164.238,201.709 166.602 M202.825 166.016 C 202.825 166.768,202.905 167.075,203.004 166.699 C 203.102 166.323,203.102 165.708,203.004 165.332 C 202.905 164.956,202.825 165.264,202.825 166.016 M234.950 169.238 L 232.227 172.070 235.059 169.346 C 236.616 167.848,237.891 166.574,237.891 166.514 C 237.891 166.228,237.480 166.608,234.950 169.238 M207.547 170.313 C 207.547 171.709,207.618 172.280,207.704 171.582 C 207.791 170.884,207.791 169.741,207.704 169.043 C 207.618 168.345,207.547 168.916,207.547 170.313 M198.555 170.313 C 198.555 171.494,198.628 171.978,198.717 171.387 C 198.807 170.796,198.807 169.829,198.717 169.238 C 198.628 168.647,198.555 169.131,198.555 170.313 M217.368 170.410 L 215.430 172.461 217.480 170.522 C 219.386 168.721,219.710 168.359,219.419 168.359 C 219.357 168.359,218.434 169.282,217.368 170.410 M175.951 183.789 C 175.950 189.160,176.005 191.412,176.073 188.792 C 176.140 186.173,176.141 181.778,176.073 179.027 C 176.006 176.275,175.951 178.418,175.951 183.789 M207.550 176.758 C 207.552 178.262,207.622 178.829,207.707 178.019 C 207.792 177.208,207.790 175.978,207.704 175.284 C 207.618 174.591,207.548 175.254,207.550 176.758 M205.616 179.297 C 205.616 181.768,205.680 182.778,205.757 181.543 C 205.835 180.308,205.835 178.286,205.757 177.051 C 205.680 175.815,205.616 176.826,205.616 179.297 M196.616 178.516 C 196.616 180.127,196.685 180.786,196.769 179.980 C 196.853 179.175,196.853 177.856,196.769 177.051 C 196.685 176.245,196.616 176.904,196.616 178.516 M204.297 181.418 C 204.297 183.712,204.221 183.945,203.418 184.099 C 202.664 184.244,202.692 184.276,203.613 184.322 L 204.688 184.375 204.688 181.641 C 204.688 180.137,204.600 178.906,204.492 178.906 C 204.385 178.906,204.297 180.037,204.297 181.418 M298.181 182.227 C 298.182 183.945,298.251 184.600,298.333 183.681 C 298.416 182.762,298.415 181.356,298.331 180.556 C 298.247 179.756,298.179 180.508,298.181 182.227 M199.374 182.227 C 199.413 184.114,199.453 184.182,200.586 184.236 C 201.658 184.288,201.668 184.278,200.704 184.115 C 199.764 183.956,199.633 183.739,199.492 182.105 L 199.334 180.273 199.374 182.227 M207.730 184.274 C 209.081 184.350,211.191 184.350,212.418 184.273 C 213.645 184.195,212.539 184.133,209.961 184.134 C 207.383 184.134,206.379 184.197,207.730 184.274 M197.149 185.801 C 197.876 185.958,198.032 186.301,198.155 188.013 L 198.300 190.039 198.271 187.891 C 198.244 185.885,198.177 185.738,197.266 185.678 C 196.442 185.624,196.424 185.643,197.149 185.801 M201.297 188.281 C 201.297 189.678,201.368 190.249,201.454 189.551 C 201.541 188.853,201.541 187.710,201.454 187.012 C 201.368 186.313,201.297 186.885,201.297 188.281 M202.461 187.891 C 202.461 189.072,202.534 189.556,202.624 188.965 C 202.713 188.374,202.713 187.407,202.624 186.816 C 202.534 186.226,202.461 186.709,202.461 187.891 M391.925 194.336 C 391.927 195.840,391.997 196.407,392.082 195.597 C 392.167 194.786,392.165 193.556,392.079 192.862 C 391.993 192.169,391.923 192.832,391.925 194.336 M8.711 194.531 C 8.711 195.713,8.784 196.196,8.874 195.605 C 8.963 195.015,8.963 194.048,8.874 193.457 C 8.784 192.866,8.711 193.350,8.711 194.531 M190.742 196.094 C 190.742 197.275,190.815 197.759,190.905 197.168 C 190.994 196.577,190.994 195.610,190.905 195.020 C 190.815 194.429,190.742 194.912,190.742 196.094 M206.721 194.821 C 208.162 194.895,210.623 194.896,212.190 194.822 C 213.757 194.747,212.578 194.686,209.570 194.685 C 206.562 194.685,205.280 194.746,206.721 194.821 M391.914 205.859 C 391.914 207.041,391.987 207.524,392.077 206.934 C 392.166 206.343,392.166 205.376,392.077 204.785 C 391.987 204.194,391.914 204.678,391.914 205.859 M8.719 207.031 C 8.719 208.428,8.790 208.999,8.876 208.301 C 8.963 207.603,8.963 206.460,8.876 205.762 C 8.790 205.063,8.719 205.635,8.719 207.031 M147.608 206.359 C 147.776 206.527,150.361 206.614,153.351 206.553 L 158.789 206.443 153.046 206.249 C 149.887 206.142,147.440 206.192,147.608 206.359 M211.628 206.533 C 212.330 206.620,213.385 206.618,213.972 206.529 C 214.559 206.440,213.984 206.369,212.695 206.371 C 211.406 206.373,210.926 206.446,211.628 206.533 M198.949 215.917 C 201.916 215.984,206.662 215.983,209.496 215.917 C 212.330 215.850,209.902 215.796,204.102 215.796 C 198.301 215.796,195.982 215.851,198.949 215.917 M176.669 229.688 C 176.669 230.654,176.745 231.050,176.838 230.566 C 176.931 230.083,176.931 229.292,176.838 228.809 C 176.745 228.325,176.669 228.721,176.669 229.688 M194.238 230.365 C 195.259 230.446,196.929 230.446,197.949 230.365 C 198.970 230.285,198.135 230.219,196.094 230.219 C 194.053 230.219,193.218 230.285,194.238 230.365 M207.715 232.314 C 208.413 232.400,209.556 232.400,210.254 232.314 C 210.952 232.227,210.381 232.156,208.984 232.156 C 207.588 232.156,207.017 232.227,207.715 232.314 M306.353 232.702 C 306.947 232.792,307.826 232.790,308.306 232.697 C 308.787 232.604,308.301 232.531,307.227 232.534 C 306.152 232.537,305.759 232.612,306.353 232.702 M118.338 238.574 L 116.992 240.039 118.457 238.693 C 119.820 237.440,120.101 237.109,119.803 237.109 C 119.738 237.109,119.079 237.769,118.338 238.574 M198.559 237.402 C 201.525 237.468,206.272 237.468,209.105 237.401 C 211.939 237.335,209.512 237.280,203.711 237.280 C 197.910 237.281,195.592 237.335,198.559 237.402 M193.460 242.969 C 193.597 243.471,195.147 243.556,204.329 243.565 L 215.039 243.574 204.511 243.460 C 196.720 243.376,193.895 243.221,193.642 242.865 C 193.393 242.513,193.343 242.542,193.460 242.969 M120.107 246.973 L 117.383 249.805 120.215 247.081 C 122.845 244.551,123.225 244.141,122.939 244.141 C 122.879 244.141,121.605 245.415,120.107 246.973 M208.313 254.194 C 209.340 254.275,210.922 254.274,211.828 254.192 C 212.735 254.110,211.895 254.044,209.961 254.045 C 208.027 254.046,207.286 254.113,208.313 254.194 M202.051 255.761 C 205.005 255.827,209.839 255.827,212.793 255.761 C 215.747 255.694,213.330 255.640,207.422 255.640 C 201.514 255.640,199.097 255.694,202.051 255.761 M198.387 259.482 C 198.554 259.648,201.929 259.735,205.888 259.676 L 213.086 259.569 205.585 259.374 C 201.460 259.267,198.221 259.316,198.387 259.482 M239.169 262.500 C 239.169 263.467,239.245 263.862,239.338 263.379 C 239.431 262.896,239.431 262.104,239.338 261.621 C 239.245 261.138,239.169 261.533,239.169 262.500 M241.513 262.500 C 241.513 263.467,241.589 263.862,241.682 263.379 C 241.775 262.896,241.775 262.104,241.682 261.621 C 241.589 261.138,241.513 261.533,241.513 262.500 M207.015 272.363 C 207.973 273.384,208.808 274.219,208.870 274.219 C 209.164 274.219,208.854 273.868,207.129 272.249 L 205.273 270.508 207.015 272.363 M238.184 284.661 C 239.097 284.743,240.591 284.743,241.504 284.661 C 242.417 284.579,241.670 284.511,239.844 284.511 C 238.018 284.511,237.271 284.579,238.184 284.661 M59.375 329.810 C 59.375 329.877,59.946 330.448,60.645 331.079 L 61.914 332.227 60.767 330.957 C 59.697 329.774,59.375 329.508,59.375 329.810 M67.969 338.477 C 68.698 339.229,69.382 339.844,69.489 339.844 C 69.597 339.844,69.088 339.229,68.359 338.477 C 67.631 337.725,66.946 337.109,66.839 337.109 C 66.732 337.109,67.240 337.725,67.969 338.477 M193.072 391.687 C 193.666 391.776,194.544 391.774,195.025 391.681 C 195.505 391.589,195.020 391.515,193.945 391.518 C 192.871 391.521,192.478 391.597,193.072 391.687 M207.324 391.682 C 207.808 391.775,208.599 391.775,209.082 391.682 C 209.565 391.589,209.170 391.513,208.203 391.513 C 207.236 391.513,206.841 391.589,207.324 391.682 " stroke="none" fill="#764b25" fill-rule="evenodd"></path><path id="path4" d="M329.688 58.716 C 329.688 58.783,330.259 59.354,330.957 59.986 L 332.227 61.133 331.079 59.863 C 330.010 58.680,329.688 58.414,329.688 58.716 M64.624 64.941 L 63.477 66.211 64.746 65.064 C 65.444 64.433,66.016 63.861,66.016 63.794 C 66.016 63.492,65.693 63.758,64.624 64.941 M220.794 94.922 C 220.794 95.674,220.874 95.981,220.972 95.605 C 221.071 95.229,221.071 94.614,220.972 94.238 C 220.874 93.862,220.794 94.170,220.794 94.922 M220.403 100.781 C 220.403 101.533,220.484 101.841,220.582 101.465 C 220.680 101.089,220.680 100.474,220.582 100.098 C 220.484 99.722,220.403 100.029,220.403 100.781 M196.003 104.189 C 196.705 104.276,197.760 104.274,198.347 104.185 C 198.934 104.096,198.359 104.025,197.070 104.027 C 195.781 104.029,195.301 104.102,196.003 104.189 M190.724 113.477 C 190.728 114.336,190.808 114.642,190.901 114.156 C 190.995 113.670,190.991 112.967,190.893 112.593 C 190.796 112.220,190.719 112.617,190.724 113.477 M211.235 118.636 C 211.721 118.729,212.424 118.726,212.798 118.628 C 213.171 118.530,212.773 118.454,211.914 118.458 C 211.055 118.462,210.749 118.542,211.235 118.636 M195.794 124.609 C 195.794 125.361,195.874 125.669,195.972 125.293 C 196.071 124.917,196.071 124.302,195.972 123.926 C 195.874 123.550,195.794 123.857,195.794 124.609 M208.649 127.344 C 208.649 127.666,208.800 128.281,208.984 128.711 C 209.196 129.203,209.320 129.276,209.320 128.906 C 209.320 128.584,209.169 127.969,208.984 127.539 C 208.773 127.047,208.649 126.974,208.649 127.344 M210.247 128.906 C 210.247 129.658,210.327 129.966,210.426 129.590 C 210.524 129.214,210.524 128.599,210.426 128.223 C 210.327 127.847,210.247 128.154,210.247 128.906 M196.777 130.354 C 197.261 130.447,198.052 130.447,198.535 130.354 C 199.019 130.261,198.623 130.185,197.656 130.185 C 196.689 130.185,196.294 130.261,196.777 130.354 M213.160 130.357 C 213.630 130.444,214.095 130.772,214.194 131.086 C 214.308 131.447,214.351 131.403,214.312 130.965 C 214.273 130.516,213.909 130.260,213.278 130.236 C 212.476 130.205,212.455 130.226,213.160 130.357 M218.471 133.789 C 218.474 134.863,218.550 135.256,218.640 134.663 C 218.729 134.069,218.727 133.190,218.634 132.709 C 218.542 132.229,218.468 132.715,218.471 133.789 M210.664 134.809 C 210.906 135.195,211.198 135.390,211.313 135.241 C 211.429 135.092,211.671 134.860,211.852 134.725 C 212.033 134.590,211.741 134.396,211.203 134.293 C 210.344 134.129,210.278 134.191,210.664 134.809 M175.688 135.042 C 176.174 135.135,176.877 135.132,177.251 135.034 C 177.624 134.936,177.227 134.860,176.367 134.864 C 175.508 134.868,175.202 134.948,175.688 135.042 M191.127 138.867 C 191.130 139.941,191.206 140.334,191.296 139.741 C 191.386 139.147,191.383 138.268,191.291 137.788 C 191.198 137.307,191.124 137.793,191.127 138.867 M170.801 142.858 C 171.392 142.947,172.358 142.947,172.949 142.858 C 173.540 142.768,173.057 142.695,171.875 142.695 C 170.693 142.695,170.210 142.768,170.801 142.858 M200.158 144.111 C 200.194 145.031,201.172 145.822,201.172 144.931 C 201.172 144.686,201.008 144.586,200.808 144.710 C 200.608 144.834,200.371 144.537,200.282 144.050 C 200.131 143.225,200.123 143.229,200.158 144.111 M204.824 151.172 C 204.824 152.998,204.891 153.745,204.974 152.832 C 205.056 151.919,205.056 150.425,204.974 149.512 C 204.891 148.599,204.824 149.346,204.824 151.172 M211.085 152.344 C 211.085 154.814,211.149 155.825,211.226 154.590 C 211.304 153.354,211.304 151.333,211.226 150.098 C 211.149 148.862,211.085 149.873,211.085 152.344 M196.992 150.391 C 196.992 151.572,197.065 152.056,197.155 151.465 C 197.244 150.874,197.244 149.907,197.155 149.316 C 197.065 148.726,196.992 149.209,196.992 150.391 M190.746 152.539 C 190.748 153.828,190.821 154.308,190.908 153.606 C 190.995 152.904,190.993 151.850,190.904 151.263 C 190.815 150.676,190.744 151.250,190.746 152.539 M208.324 154.883 C 208.326 156.172,208.399 156.652,208.486 155.950 C 208.573 155.248,208.571 154.193,208.482 153.606 C 208.393 153.019,208.322 153.594,208.324 154.883 M176.270 156.445 C 176.275 157.305,176.355 157.610,176.448 157.124 C 176.542 156.638,176.538 155.935,176.440 155.562 C 176.342 155.188,176.266 155.586,176.270 156.445 M198.902 157.494 C 198.831 160.020,198.793 160.110,197.754 160.267 L 196.680 160.430 197.766 160.488 C 199.109 160.561,199.299 160.097,199.118 157.183 L 198.976 154.883 198.902 157.494 M204.753 158.275 C 204.693 159.951,204.597 160.118,203.613 160.267 L 202.539 160.430 203.626 160.488 C 204.902 160.557,205.188 160.019,204.975 157.951 C 204.825 156.500,204.816 156.512,204.753 158.275 M200.098 160.426 C 200.474 160.524,201.089 160.524,201.465 160.426 C 201.841 160.327,201.533 160.247,200.781 160.247 C 200.029 160.247,199.722 160.327,200.098 160.426 M204.821 164.648 C 204.823 166.367,204.892 167.022,204.974 166.103 C 205.057 165.184,205.055 163.778,204.971 162.978 C 204.888 162.178,204.820 162.930,204.821 164.648 M208.315 163.867 C 208.318 164.941,208.394 165.334,208.483 164.741 C 208.573 164.147,208.571 163.268,208.478 162.788 C 208.385 162.307,208.312 162.793,208.315 163.867 M175.913 167.969 C 175.913 169.580,175.982 170.239,176.066 169.434 C 176.150 168.628,176.150 167.310,176.066 166.504 C 175.982 165.698,175.913 166.357,175.913 167.969 M199.353 168.945 C 199.354 170.664,199.423 171.319,199.505 170.400 C 199.588 169.481,199.587 168.075,199.503 167.275 C 199.419 166.475,199.351 167.227,199.353 168.945 M210.683 169.141 C 210.683 170.967,210.751 171.714,210.833 170.801 C 210.915 169.888,210.915 168.394,210.833 167.480 C 210.751 166.567,210.683 167.314,210.683 169.141 M196.543 169.606 C 196.511 171.258,196.616 172.692,196.777 172.792 C 196.938 172.892,197.021 171.980,196.960 170.764 C 196.769 166.949,196.604 166.489,196.543 169.606 M213.415 169.727 C 213.417 171.445,213.485 172.100,213.568 171.181 C 213.650 170.262,213.649 168.856,213.565 168.056 C 213.481 167.256,213.414 168.008,213.415 169.727 M204.809 170.117 C 204.811 171.406,204.884 171.887,204.971 171.184 C 205.058 170.482,205.056 169.428,204.967 168.841 C 204.877 168.254,204.806 168.828,204.809 170.117 M200.098 172.926 C 200.474 173.024,201.089 173.024,201.465 172.926 C 201.841 172.827,201.533 172.747,200.781 172.747 C 200.029 172.747,199.722 172.827,200.098 172.926 M205.957 172.926 C 206.333 173.024,206.948 173.024,207.324 172.926 C 207.700 172.827,207.393 172.747,206.641 172.747 C 205.889 172.747,205.581 172.827,205.957 172.926 M199.325 175.781 C 199.325 176.748,199.401 177.144,199.494 176.660 C 199.588 176.177,199.588 175.386,199.494 174.902 C 199.401 174.419,199.325 174.814,199.325 175.781 M202.485 177.734 C 202.485 179.775,202.550 180.610,202.631 179.590 C 202.711 178.569,202.711 176.899,202.631 175.879 C 202.550 174.858,202.485 175.693,202.485 177.734 M208.331 176.758 C 208.333 178.262,208.404 178.829,208.488 178.019 C 208.573 177.208,208.571 175.978,208.485 175.284 C 208.399 174.591,208.330 175.254,208.331 176.758 M210.653 176.172 C 210.653 177.139,210.729 177.534,210.823 177.051 C 210.916 176.567,210.916 175.776,210.823 175.293 C 210.729 174.810,210.653 175.205,210.653 176.172 M201.710 179.688 C 201.710 182.158,201.774 183.169,201.851 181.934 C 201.929 180.698,201.929 178.677,201.851 177.441 C 201.774 176.206,201.710 177.217,201.710 179.688 M198.555 179.297 C 198.555 180.479,198.628 180.962,198.717 180.371 C 198.807 179.780,198.807 178.813,198.717 178.223 C 198.628 177.632,198.555 178.115,198.555 179.297 M202.832 185.816 C 203.208 185.914,203.823 185.914,204.199 185.816 C 204.575 185.718,204.268 185.638,203.516 185.638 C 202.764 185.638,202.456 185.718,202.832 185.816 M207.910 185.836 C 209.146 185.913,211.167 185.913,212.402 185.836 C 213.638 185.758,212.627 185.695,210.156 185.695 C 207.686 185.695,206.675 185.758,207.910 185.836 M196.228 188.867 C 196.229 190.586,196.298 191.240,196.380 190.322 C 196.463 189.403,196.462 187.997,196.378 187.197 C 196.294 186.397,196.226 187.148,196.228 188.867 M198.971 191.211 C 198.972 193.359,199.037 194.188,199.117 193.053 C 199.196 191.918,199.195 190.160,199.115 189.147 C 199.035 188.134,198.970 189.063,198.971 191.211 M9.075 190.234 C 9.075 190.986,9.155 191.294,9.254 190.918 C 9.352 190.542,9.352 189.927,9.254 189.551 C 9.155 189.175,9.075 189.482,9.075 190.234 M190.731 191.016 C 190.731 191.982,190.808 192.378,190.901 191.895 C 190.994 191.411,190.994 190.620,190.901 190.137 C 190.808 189.653,190.731 190.049,190.731 191.016 M198.963 196.697 C 198.836 197.028,198.841 197.409,198.975 197.543 C 199.109 197.677,199.219 197.502,199.219 197.155 C 199.219 196.663,199.715 196.492,201.465 196.382 L 203.711 196.241 201.453 196.168 C 199.729 196.111,199.139 196.237,198.963 196.697 M175.920 200.977 C 175.919 202.910,175.985 203.750,176.067 202.844 C 176.149 201.937,176.150 200.355,176.069 199.328 C 175.988 198.301,175.921 199.043,175.920 200.977 M191.144 204.102 C 191.146 205.605,191.216 206.173,191.301 205.362 C 191.385 204.552,191.384 203.321,191.298 202.628 C 191.211 201.935,191.142 202.598,191.144 204.102 M199.219 204.960 C 207.425 205.238,215.536 205.248,215.370 204.980 C 215.270 204.819,210.848 204.724,205.543 204.768 C 200.239 204.812,197.393 204.899,199.219 204.960 M168.853 206.140 C 169.447 206.229,170.326 206.227,170.806 206.134 C 171.287 206.042,170.801 205.968,169.727 205.971 C 168.652 205.974,168.259 206.050,168.853 206.140 M391.497 210.156 C 391.497 210.908,391.577 211.216,391.676 210.840 C 391.774 210.464,391.774 209.849,391.676 209.473 C 391.577 209.097,391.497 209.404,391.497 210.156 M9.075 211.328 C 9.075 212.080,9.155 212.388,9.254 212.012 C 9.352 211.636,9.352 211.021,9.254 210.645 C 9.155 210.269,9.075 210.576,9.075 211.328 M151.465 213.574 C 156.030 213.636,163.501 213.636,168.066 213.574 C 172.632 213.511,168.896 213.460,159.766 213.460 C 150.635 213.460,146.899 213.511,151.465 213.574 M193.850 213.672 C 193.986 214.169,195.278 214.260,202.376 214.270 L 210.742 214.283 202.557 214.164 C 196.644 214.079,194.277 213.913,194.031 213.566 C 193.784 213.218,193.734 213.247,193.850 213.672 M176.308 222.656 C 176.308 224.482,176.376 225.229,176.458 224.316 C 176.540 223.403,176.540 221.909,176.458 220.996 C 176.376 220.083,176.308 220.830,176.308 222.656 M214.093 221.770 C 214.063 222.641,214.058 222.641,205.371 222.754 L 196.680 222.867 205.383 222.957 C 214.443 223.051,214.953 222.962,214.325 221.400 C 214.215 221.124,214.110 221.291,214.093 221.770 M192.313 228.125 C 192.313 229.521,192.383 230.093,192.470 229.395 C 192.557 228.696,192.557 227.554,192.470 226.855 C 192.383 226.157,192.313 226.729,192.313 228.125 M187.612 227.930 C 187.615 229.004,187.691 229.397,187.780 228.803 C 187.870 228.209,187.868 227.331,187.775 226.850 C 187.682 226.370,187.609 226.855,187.612 227.930 M279.597 228.799 C 280.299 228.886,281.354 228.884,281.941 228.795 C 282.528 228.706,281.953 228.634,280.664 228.637 C 279.375 228.639,278.895 228.712,279.597 228.799 M295.025 228.796 C 295.619 228.886,296.498 228.883,296.978 228.791 C 297.458 228.698,296.973 228.624,295.898 228.627 C 294.824 228.630,294.431 228.706,295.025 228.796 M192.299 233.789 C 192.302 234.863,192.378 235.256,192.468 234.663 C 192.558 234.069,192.555 233.190,192.462 232.709 C 192.370 232.229,192.296 232.715,192.299 233.789 M187.606 233.984 C 187.606 234.951,187.683 235.347,187.776 234.863 C 187.869 234.380,187.869 233.589,187.776 233.105 C 187.683 232.622,187.606 233.018,187.606 233.984 M214.153 233.594 C 214.153 234.346,214.234 234.653,214.332 234.277 C 214.430 233.901,214.430 233.286,214.332 232.910 C 214.234 232.534,214.153 232.842,214.153 233.594 M198.363 238.964 C 201.438 239.030,206.360 239.030,209.301 238.964 C 212.242 238.897,209.727 238.843,203.711 238.844 C 197.695 238.844,195.289 238.898,198.363 238.964 M195.410 249.488 C 195.786 249.586,196.401 249.586,196.777 249.488 C 197.153 249.390,196.846 249.309,196.094 249.309 C 195.342 249.309,195.034 249.390,195.410 249.488 M200.293 250.681 C 202.065 250.754,204.966 250.754,206.738 250.681 C 208.511 250.609,207.061 250.550,203.516 250.550 C 199.971 250.550,198.521 250.609,200.293 250.681 M93.652 259.651 C 94.136 259.744,94.927 259.744,95.410 259.651 C 95.894 259.558,95.498 259.481,94.531 259.481 C 93.564 259.481,93.169 259.558,93.652 259.651 M219.729 260.161 C 219.841 260.341,219.622 260.577,219.243 260.685 C 218.864 260.794,219.082 260.851,219.727 260.812 C 220.988 260.737,221.341 260.100,220.213 259.935 C 219.836 259.879,219.618 259.981,219.729 260.161 M198.828 260.843 C 198.828 261.005,199.663 261.085,200.684 261.019 C 203.652 260.828,203.908 260.641,201.270 260.592 C 199.927 260.567,198.828 260.680,198.828 260.843 M246.582 276.456 C 247.388 276.541,248.706 276.541,249.512 276.456 C 250.317 276.372,249.658 276.303,248.047 276.303 C 246.436 276.303,245.776 276.372,246.582 276.456 M338.853 332.129 L 336.914 334.180 338.965 332.241 C 340.093 331.175,341.016 330.252,341.016 330.190 C 341.016 329.899,340.654 330.223,338.853 332.129 M332.603 338.379 L 330.664 340.430 332.715 338.491 C 333.843 337.425,334.766 336.502,334.766 336.440 C 334.766 336.149,334.404 336.473,332.603 338.379 M189.551 391.285 C 189.927 391.383,190.542 391.383,190.918 391.285 C 191.294 391.187,190.986 391.106,190.234 391.106 C 189.482 391.106,189.175 391.187,189.551 391.285 M210.844 391.292 C 211.330 391.385,212.033 391.382,212.407 391.284 C 212.780 391.186,212.383 391.110,211.523 391.114 C 210.664 391.118,210.358 391.198,210.844 391.292 M199.909 391.689 C 200.611 391.776,201.666 391.774,202.253 391.685 C 202.840 391.596,202.266 391.525,200.977 391.527 C 199.688 391.529,199.207 391.602,199.909 391.689 " stroke="none" fill="#b98442" fill-rule="evenodd"></path></g></svg>