<?xml version="1.0" standalone="no"?>
<!DOCTYPE svg PUBLIC "-//W3C//DTD SVG 20010904//EN"
 "http://www.w3.org/TR/2001/REC-SVG-20010904/DTD/svg10.dtd">
<svg version="1.0" xmlns="http://www.w3.org/2000/svg"
 width="1080.000000pt" height="1080.000000pt" viewBox="0 0 1080.000000 1080.000000"
 preserveAspectRatio="xMidYMid meet">

<g transform="translate(0.000000,1080.000000) scale(0.100000,-0.100000)"
fill="#000000" stroke="none">
<path d="M3950 7879 c-454 -12 -615 -28 -825 -81 -297 -75 -557 -207 -705
-358 -105 -107 -165 -228 -190 -387 -15 -90 1 -233 45 -396 23 -90 42 -119 68
-111 23 7 185 78 250 109 44 22 47 42 16 130 -16 45 -21 86 -22 161 -2 144 22
203 123 304 172 174 484 268 947 287 131 5 153 4 158 -9 4 -9 -24 -67 -66
-139 -39 -68 -90 -155 -112 -194 -44 -78 -210 -360 -297 -505 -31 -52 -82
-140 -112 -195 -47 -85 -229 -400 -288 -500 -32 -54 -331 -568 -387 -665 -70
-121 -157 -274 -268 -470 -48 -85 -96 -170 -106 -187 -11 -18 -27 -48 -38 -65
-249 -435 -503 -834 -630 -993 -115 -144 -192 -203 -315 -245 -85 -29 -295
-28 -409 1 -120 30 -118 32 -203 -176 -70 -175 -62 -192 111 -221 161 -27 349
-10 512 47 311 109 548 353 938 969 31 47 128 213 186 318 12 20 25 42 29 47
4 6 23 39 42 75 20 36 50 92 68 125 18 33 46 86 62 117 49 96 -5 88 558 88
274 0 501 -3 504 -8 2 -4 -2 -77 -9 -162 -14 -172 -12 -461 5 -645 35 -370
112 -612 240 -749 115 -122 234 -159 448 -138 64 6 152 14 195 18 94 7 107 18
107 85 0 64 -8 79 -64 114 -55 35 -93 80 -134 160 -66 130 -91 209 -124 383
-18 100 -22 163 -26 430 -4 330 -7 287 59 937 11 110 24 259 30 330 5 72 14
180 19 240 6 61 14 171 20 245 5 74 16 203 24 285 17 162 29 300 51 580 8 99
19 227 25 285 11 108 38 465 47 624 5 79 3 91 -13 103 -20 14 -64 15 -544 2z
m-124 -1128 c-4 -64 -14 -181 -22 -261 -8 -80 -19 -197 -25 -260 -5 -63 -14
-146 -19 -185 -6 -38 -15 -110 -19 -160 -10 -96 -32 -279 -56 -460 -8 -60 -19
-159 -26 -218 -7 -67 -17 -114 -26 -123 -12 -12 -83 -14 -426 -14 -227 0 -418
4 -426 9 -15 10 19 78 125 254 30 49 54 90 54 91 0 5 130 228 149 256 10 14
53 87 97 163 43 76 88 154 99 172 11 19 38 65 59 102 223 388 422 729 439 750
23 30 29 -3 23 -116z"/>
<path d="M8030 7584 c-328 -17 -579 -63 -865 -159 -829 -277 -1438 -852 -1683
-1590 -77 -229 -96 -307 -147 -597 -80 -451 -42 -1073 90 -1463 83 -247 177
-424 323 -610 386 -490 910 -738 1607 -762 315 -10 500 18 870 132 305 93 354
108 545 156 130 34 202 57 217 70 24 23 35 74 58 269 41 342 138 804 204 975
38 99 105 208 149 245 75 62 168 99 285 114 71 8 112 18 118 27 12 19 11 130
-1 149 -8 13 -125 15 -937 18 -510 1 -942 0 -959 -3 -28 -5 -37 -15 -69 -80
-49 -100 -46 -118 25 -128 276 -38 326 -50 420 -97 84 -43 136 -98 149 -161
23 -104 12 -262 -28 -439 -11 -47 -25 -110 -31 -140 -7 -30 -23 -109 -37 -175
-14 -66 -29 -142 -33 -170 -5 -27 -20 -108 -34 -180 -31 -152 -34 -157 -154
-198 -133 -45 -229 -66 -360 -77 -478 -42 -860 100 -1155 429 -146 163 -288
441 -351 689 -57 220 -69 326 -73 642 -5 289 -1 346 31 580 37 262 126 589
229 841 157 383 412 729 727 983 102 82 382 239 505 283 198 71 498 108 680
84 214 -29 341 -66 462 -137 146 -86 250 -190 322 -324 93 -174 122 -294 130
-545 l6 -180 150 0 149 0 13 25 c6 14 21 90 33 170 19 128 72 469 130 825 30
179 30 223 1 244 -13 10 -42 23 -65 28 -23 6 -97 27 -166 48 -132 39 -432 109
-535 125 -33 5 -103 16 -155 24 -200 30 -592 51 -790 40z"/>
</g>
</svg>
