<?xml version="1.0" standalone="no"?>
<!DOCTYPE svg PUBLIC "-//W3C//DTD SVG 20010904//EN"
 "http://www.w3.org/TR/2001/REC-SVG-20010904/DTD/svg10.dtd">
<svg version="1.0" xmlns="http://www.w3.org/2000/svg"
 width="1864.000000pt" height="1809.000000pt" viewBox="0 0 1864.000000 1809.000000"
 preserveAspectRatio="xMidYMid meet">

<g transform="translate(0.000000,1809.000000) scale(0.100000,-0.100000)"
fill="#000000" stroke="none">
<path d="M6436 16629 c-62 -25 -91 -44 -136 -89 -73 -75 -113 -152 -209 -407
-131 -346 -252 -659 -401 -1038 -78 -198 -170 -434 -205 -525 -35 -91 -102
-264 -150 -385 -48 -121 -95 -242 -105 -270 -10 -27 -31 -84 -49 -125 -17 -41
-60 -151 -96 -245 -36 -93 -101 -260 -145 -370 -43 -110 -109 -279 -146 -375
-37 -96 -108 -276 -157 -400 -49 -124 -102 -259 -117 -300 -15 -41 -48 -123
-74 -182 -25 -59 -46 -111 -46 -115 0 -5 -21 -60 -46 -123 -26 -63 -106 -268
-179 -455 -154 -393 -264 -674 -410 -1040 -149 -373 -274 -692 -295 -750 -10
-27 -64 -162 -120 -300 -56 -137 -110 -273 -120 -301 -10 -28 -41 -105 -68
-170 -28 -65 -57 -137 -65 -159 -8 -22 -60 -152 -117 -290 -288 -708 -601
-1222 -942 -1551 -211 -204 -314 -279 -526 -387 -160 -82 -278 -124 -451 -164
-189 -43 -228 -56 -280 -93 -52 -38 -72 -70 -78 -123 -4 -33 0 -49 19 -76 69
-101 106 -103 998 -64 506 22 1508 21 2075 -1 237 -10 563 -18 725 -19 264 -2
298 0 327 15 46 26 82 78 89 131 8 59 -23 127 -72 157 -33 21 -164 56 -374
100 -196 41 -413 126 -539 213 -77 53 -208 175 -256 239 -219 291 -255 769
-99 1303 67 229 157 491 231 668 40 98 73 182 73 187 0 5 11 33 24 62 13 29
65 158 116 287 51 129 105 263 121 298 l28 63 1894 0 1894 0 26 -67 c14 -38
58 -151 97 -253 40 -102 107 -275 150 -385 44 -110 127 -321 185 -470 58 -148
119 -304 136 -345 17 -41 80 -201 139 -355 60 -154 135 -347 168 -430 32 -82
96 -244 141 -360 175 -445 305 -739 375 -844 56 -84 152 -176 211 -202 45 -20
53 -20 298 -8 282 13 1059 7 1537 -13 157 -6 382 -12 500 -12 200 -1 217 0
250 20 19 11 45 36 58 55 20 29 23 44 20 96 -6 102 -32 118 -326 212 -235 76
-372 132 -496 205 -200 118 -361 270 -555 524 -144 190 -345 581 -465 907 -24
66 -126 329 -226 585 -100 256 -197 506 -216 555 -19 50 -48 124 -64 165 -16
41 -61 158 -100 260 -40 102 -125 320 -190 485 -66 165 -162 410 -216 545 -53
135 -128 328 -166 430 -102 269 -92 242 -356 915 -89 226 -175 446 -192 490
-17 44 -44 114 -60 155 -16 41 -61 158 -100 260 -39 102 -86 222 -105 266 -19
45 -48 119 -65 165 -17 46 -64 167 -105 269 -79 200 -236 599 -501 1270 -92
234 -175 448 -185 476 -9 28 -25 67 -35 85 -9 19 -43 102 -75 184 -31 83 -104
272 -162 420 -265 680 -290 735 -384 832 -80 83 -139 105 -287 110 -117 3
-124 2 -200 -28z m-242 -2086 c7 -16 37 -93 64 -173 28 -80 83 -235 123 -345
39 -110 113 -319 164 -465 153 -439 263 -753 276 -790 6 -19 22 -65 36 -101
39 -107 216 -619 323 -934 54 -159 137 -398 185 -530 48 -132 111 -312 141
-399 30 -88 58 -164 64 -170 5 -5 10 -17 10 -26 0 -8 39 -123 86 -255 48 -132
87 -251 88 -265 1 -25 -1 -25 -94 -31 -52 -4 -810 -7 -1683 -8 l-1588 -1 6 23
c4 12 23 60 42 107 19 47 45 112 57 145 12 33 75 195 140 360 162 412 379 966
433 1105 24 63 59 151 78 195 18 44 113 280 210 525 97 245 192 483 211 528
19 46 34 89 34 95 0 7 7 26 16 42 9 17 31 71 49 120 18 50 47 124 64 165 28
65 304 766 374 950 35 92 65 160 71 160 3 0 12 -12 20 -27z"/>
<path d="M12465 13374 c-516 -53 -756 -99 -1120 -215 -280 -90 -411 -144 -721
-299 -276 -138 -310 -157 -514 -281 -203 -125 -586 -403 -718 -522 -184 -167
-189 -196 -111 -580 52 -256 100 -412 194 -633 90 -211 129 -272 183 -289 49
-15 59 -1 171 228 204 418 409 720 698 1032 192 208 368 357 618 524 398 267
764 407 1260 483 127 19 188 23 405 23 381 -1 590 -33 925 -142 390 -128 781
-360 1074 -639 233 -222 383 -403 497 -600 57 -99 163 -308 184 -364 7 -19 25
-62 41 -95 40 -86 113 -310 159 -487 44 -168 75 -330 115 -598 32 -212 49
-282 81 -336 26 -47 97 -98 158 -116 61 -18 163 -15 224 6 70 24 152 99 183
168 28 62 29 140 15 673 -9 334 1 670 29 1035 31 391 75 652 175 1052 69 276
67 357 -9 421 -50 42 -84 36 -219 -35 -354 -187 -395 -201 -612 -201 l-145 -1
-130 44 c-143 47 -310 117 -633 264 -304 139 -517 220 -739 281 -384 108 -621
151 -979 180 -185 15 -660 27 -739 19z"/>
<path d="M7430 9105 c-19 -7 -48 -16 -65 -20 -39 -9 -98 -72 -135 -144 -52
-103 -111 -331 -139 -541 -50 -364 -53 -1223 -5 -1640 71 -627 236 -1254 464
-1767 207 -464 455 -862 776 -1248 139 -167 556 -584 704 -705 188 -152 456
-350 475 -350 3 0 47 -26 98 -58 202 -128 492 -274 777 -390 467 -189 1023
-320 1610 -379 244 -24 823 -24 1070 0 523 52 1071 172 1455 317 61 23 139 52
175 65 175 61 681 307 890 433 437 263 905 628 1163 907 l65 71 -20 314 c-26
394 -32 1459 -10 1725 21 247 49 482 72 596 57 282 185 530 335 652 111 90
382 204 538 226 167 24 248 95 234 203 -7 50 -43 89 -111 119 -51 23 -54 23
-381 19 -444 -7 -3189 -6 -3540 0 l-280 5 -54 -31 c-83 -47 -114 -130 -76
-204 31 -60 146 -110 254 -110 73 0 471 -73 580 -106 46 -14 151 -59 233 -101
133 -67 160 -85 239 -161 152 -144 229 -263 287 -442 39 -120 55 -200 89 -446
l28 -199 0 -710 c-1 -688 -1 -714 -23 -855 -40 -255 -73 -366 -157 -535 -84
-169 -177 -290 -357 -467 -363 -357 -907 -609 -1508 -699 -135 -20 -172 -21
-530 -16 -414 5 -462 10 -715 73 -407 101 -880 335 -1228 607 -108 84 -299
268 -415 399 -380 429 -655 899 -980 1678 -48 115 -484 1284 -586 1570 -24 69
-85 233 -136 365 -51 132 -121 321 -157 420 -95 267 -298 791 -354 919 -137
306 -283 521 -407 599 -44 28 -138 57 -182 56 -14 0 -41 -6 -60 -14z"/>
</g>
</svg>
